<?xml version="1.0" encoding="UTF-8"?>
<svg xmlns="http://www.w3.org/2000/svg" xmlns:xlink="http://www.w3.org/1999/xlink" width="222pt" height="174pt" viewBox="0 0 222 174" version="1.1">
<defs>
<g>
<symbol overflow="visible" id="glyph0-0">
<path style="stroke:none;" d=""/>
</symbol>
<symbol overflow="visible" id="glyph0-1">
<path style="stroke:none;" d="M 3.65625 0 L 3.65625 -3.96875 L 3.03125 -3.96875 L 3.03125 -1.71875 C 3.03125 -0.90625 2.59375 -0.375 1.9375 -0.375 C 1.4375 -0.375 1.125 -0.6875 1.125 -1.15625 L 1.125 -3.96875 L 0.5 -3.96875 L 0.5 -0.90625 C 0.5 -0.25 0.984375 0.171875 1.765625 0.171875 C 2.34375 0.171875 2.71875 -0.03125 3.078125 -0.546875 L 3.078125 0 Z M 3.65625 0 "/>
</symbol>
<symbol overflow="visible" id="glyph0-2">
<path style="stroke:none;" d="M 0.40625 1.65625 L 1.046875 1.65625 L 1.046875 -0.421875 C 1.375 0 1.75 0.171875 2.265625 0.171875 C 3.28125 0.171875 3.96875 -0.65625 3.96875 -1.921875 C 3.96875 -3.25 3.3125 -4.078125 2.265625 -4.078125 C 1.71875 -4.078125 1.28125 -3.84375 1 -3.375 L 1 -3.96875 L 0.40625 -3.96875 Z M 2.15625 -3.5 C 2.84375 -3.5 3.296875 -2.875 3.296875 -1.9375 C 3.296875 -1.03125 2.84375 -0.421875 2.15625 -0.421875 C 1.484375 -0.421875 1.046875 -1.015625 1.046875 -1.953125 C 1.046875 -2.890625 1.484375 -3.5 2.15625 -3.5 Z M 2.15625 -3.5 "/>
</symbol>
<symbol overflow="visible" id="glyph0-3">
<path style="stroke:none;" d="M 3.75 -5.53125 L 3.125 -5.53125 L 3.125 -3.46875 C 2.859375 -3.875 2.4375 -4.078125 1.90625 -4.078125 C 0.875 -4.078125 0.203125 -3.265625 0.203125 -2 C 0.203125 -0.65625 0.859375 0.171875 1.921875 0.171875 C 2.46875 0.171875 2.84375 -0.03125 3.1875 -0.515625 L 3.1875 0 L 3.75 0 Z M 2.015625 -3.5 C 2.6875 -3.5 3.125 -2.890625 3.125 -1.9375 C 3.125 -1.015625 2.6875 -0.421875 2.015625 -0.421875 C 1.3125 -0.421875 0.859375 -1.03125 0.859375 -1.953125 C 0.859375 -2.875 1.3125 -3.5 2.015625 -3.5 Z M 2.015625 -3.5 "/>
</symbol>
<symbol overflow="visible" id="glyph0-4">
<path style="stroke:none;" d="M 4.046875 -0.375 C 3.984375 -0.359375 3.953125 -0.359375 3.921875 -0.359375 C 3.703125 -0.359375 3.578125 -0.46875 3.578125 -0.671875 L 3.578125 -3 C 3.578125 -3.703125 3.0625 -4.078125 2.078125 -4.078125 C 1.515625 -4.078125 1.03125 -3.921875 0.765625 -3.625 C 0.578125 -3.421875 0.5 -3.1875 0.5 -2.796875 L 1.125 -2.796875 C 1.1875 -3.28125 1.46875 -3.5 2.0625 -3.5 C 2.625 -3.5 2.953125 -3.28125 2.953125 -2.90625 L 2.953125 -2.75 C 2.953125 -2.484375 2.78125 -2.359375 2.28125 -2.296875 C 1.390625 -2.1875 1.265625 -2.15625 1.015625 -2.0625 C 0.546875 -1.875 0.3125 -1.515625 0.3125 -1 C 0.3125 -0.28125 0.8125 0.171875 1.625 0.171875 C 2.125 0.171875 2.53125 0 2.96875 -0.40625 C 3.015625 0 3.21875 0.171875 3.625 0.171875 C 3.75 0.171875 3.84375 0.15625 4.046875 0.109375 Z M 2.953125 -1.25 C 2.953125 -1.03125 2.890625 -0.90625 2.703125 -0.734375 C 2.4375 -0.5 2.125 -0.375 1.765625 -0.375 C 1.265625 -0.375 0.984375 -0.609375 0.984375 -1.015625 C 0.984375 -1.4375 1.265625 -1.640625 1.9375 -1.75 C 2.59375 -1.828125 2.734375 -1.859375 2.953125 -1.96875 Z M 2.953125 -1.25 "/>
</symbol>
<symbol overflow="visible" id="glyph0-5">
<path style="stroke:none;" d="M 1.921875 -3.96875 L 1.265625 -3.96875 L 1.265625 -5.0625 L 0.640625 -5.0625 L 0.640625 -3.96875 L 0.109375 -3.96875 L 0.109375 -3.453125 L 0.640625 -3.453125 L 0.640625 -0.453125 C 0.640625 -0.046875 0.921875 0.171875 1.40625 0.171875 C 1.5625 0.171875 1.71875 0.15625 1.921875 0.125 L 1.921875 -0.40625 C 1.84375 -0.390625 1.75 -0.375 1.625 -0.375 C 1.34375 -0.375 1.265625 -0.453125 1.265625 -0.734375 L 1.265625 -3.453125 L 1.921875 -3.453125 Z M 1.921875 -3.96875 "/>
</symbol>
<symbol overflow="visible" id="glyph0-6">
<path style="stroke:none;" d="M 3.890625 -1.765625 C 3.890625 -2.375 3.84375 -2.75 3.734375 -3.03125 C 3.46875 -3.6875 2.859375 -4.078125 2.125 -4.078125 C 1.015625 -4.078125 0.296875 -3.234375 0.296875 -1.9375 C 0.296875 -0.625 1 0.171875 2.109375 0.171875 C 3.015625 0.171875 3.640625 -0.34375 3.796875 -1.203125 L 3.171875 -1.203125 C 3 -0.6875 2.640625 -0.40625 2.125 -0.40625 C 1.734375 -0.40625 1.390625 -0.59375 1.171875 -0.921875 C 1.015625 -1.15625 0.96875 -1.375 0.96875 -1.765625 Z M 0.984375 -2.28125 C 1.03125 -3.03125 1.484375 -3.5 2.109375 -3.5 C 2.734375 -3.5 3.21875 -2.984375 3.21875 -2.328125 C 3.21875 -2.3125 3.21875 -2.296875 3.203125 -2.28125 Z M 0.984375 -2.28125 "/>
</symbol>
<symbol overflow="visible" id="glyph0-7">
<path style="stroke:none;" d="M 1.15625 -5.53125 L 0.515625 -5.53125 L 0.515625 0 L 1.15625 0 Z M 1.15625 -5.53125 "/>
</symbol>
<symbol overflow="visible" id="glyph0-8">
<path style="stroke:none;" d="M 2.0625 -4.078125 C 0.953125 -4.078125 0.265625 -3.28125 0.265625 -1.953125 C 0.265625 -0.625 0.9375 0.171875 2.0625 0.171875 C 3.1875 0.171875 3.859375 -0.625 3.859375 -1.921875 C 3.859375 -3.296875 3.203125 -4.078125 2.0625 -4.078125 Z M 2.0625 -3.5 C 2.78125 -3.5 3.203125 -2.921875 3.203125 -1.9375 C 3.203125 -1 2.765625 -0.40625 2.0625 -0.40625 C 1.359375 -0.40625 0.9375 -1 0.9375 -1.953125 C 0.9375 -2.90625 1.359375 -3.5 2.0625 -3.5 Z M 2.0625 -3.5 "/>
</symbol>
<symbol overflow="visible" id="glyph0-9">
<path style="stroke:none;" d="M 3.5625 -2.640625 C 3.53125 -3.03125 3.453125 -3.28125 3.296875 -3.5 C 3.03125 -3.859375 2.546875 -4.078125 2 -4.078125 C 0.9375 -4.078125 0.234375 -3.234375 0.234375 -1.921875 C 0.234375 -0.640625 0.921875 0.171875 2 0.171875 C 2.9375 0.171875 3.53125 -0.390625 3.609375 -1.359375 L 2.984375 -1.359375 C 2.875 -0.734375 2.546875 -0.40625 2.015625 -0.40625 C 1.3125 -0.40625 0.890625 -0.984375 0.890625 -1.921875 C 0.890625 -2.90625 1.296875 -3.5 2 -3.5 C 2.53125 -3.5 2.859375 -3.1875 2.9375 -2.640625 Z M 3.5625 -2.640625 "/>
</symbol>
<symbol overflow="visible" id="glyph0-10">
<path style="stroke:none;" d="M 0.53125 -3.96875 L 0.53125 0 L 1.171875 0 L 1.171875 -2.5 C 1.171875 -3.0625 1.578125 -3.53125 2.09375 -3.53125 C 2.5625 -3.53125 2.828125 -3.25 2.828125 -2.734375 L 2.828125 0 L 3.46875 0 L 3.46875 -2.5 C 3.46875 -3.0625 3.890625 -3.53125 4.40625 -3.53125 C 4.859375 -3.53125 5.140625 -3.234375 5.140625 -2.734375 L 5.140625 0 L 5.78125 0 L 5.78125 -2.984375 C 5.78125 -3.6875 5.359375 -4.078125 4.625 -4.078125 C 4.09375 -4.078125 3.78125 -3.921875 3.40625 -3.484375 C 3.171875 -3.90625 2.84375 -4.078125 2.328125 -4.078125 C 1.796875 -4.078125 1.453125 -3.890625 1.109375 -3.40625 L 1.109375 -3.96875 Z M 0.53125 -3.96875 "/>
</symbol>
<symbol overflow="visible" id="glyph0-11">
<path style="stroke:none;" d="M 0.515625 -3.96875 L 0.515625 0 L 1.15625 0 L 1.15625 -2.0625 C 1.15625 -2.625 1.296875 -3 1.609375 -3.21875 C 1.796875 -3.359375 2 -3.40625 2.4375 -3.421875 L 2.4375 -4.0625 C 2.328125 -4.078125 2.28125 -4.078125 2.1875 -4.078125 C 1.78125 -4.078125 1.46875 -3.84375 1.109375 -3.25 L 1.109375 -3.96875 Z M 0.515625 -3.96875 "/>
</symbol>
<symbol overflow="visible" id="glyph0-12">
<path style="stroke:none;" d="M 3.125 -3.96875 L 3.125 -3.390625 C 2.796875 -3.859375 2.421875 -4.078125 1.90625 -4.078125 C 0.90625 -4.078125 0.21875 -3.203125 0.21875 -1.921875 C 0.21875 -1.265625 0.390625 -0.734375 0.71875 -0.359375 C 1.015625 -0.015625 1.4375 0.171875 1.859375 0.171875 C 2.359375 0.171875 2.703125 -0.03125 3.0625 -0.53125 L 3.0625 -0.328125 C 3.0625 0.203125 3 0.53125 2.828125 0.75 C 2.671875 0.984375 2.34375 1.125 1.953125 1.125 C 1.671875 1.125 1.40625 1.046875 1.234375 0.90625 C 1.09375 0.796875 1.03125 0.6875 1 0.453125 L 0.34375 0.453125 C 0.421875 1.203125 1 1.65625 1.9375 1.65625 C 2.53125 1.65625 3.03125 1.46875 3.28125 1.140625 C 3.59375 0.78125 3.703125 0.28125 3.703125 -0.65625 L 3.703125 -3.96875 Z M 1.984375 -3.5 C 2.65625 -3.5 3.0625 -2.921875 3.0625 -1.9375 C 3.0625 -0.984375 2.65625 -0.40625 1.984375 -0.40625 C 1.296875 -0.40625 0.875 -1 0.875 -1.953125 C 0.875 -2.90625 1.296875 -3.5 1.984375 -3.5 Z M 1.984375 -3.5 "/>
</symbol>
<symbol overflow="visible" id="glyph0-13">
<path style="stroke:none;" d="M 1.140625 -3.96875 L 0.5 -3.96875 L 0.5 0 L 1.140625 0 Z M 1.140625 -5.53125 L 0.5 -5.53125 L 0.5 -4.734375 L 1.140625 -4.734375 Z M 1.140625 -5.53125 "/>
</symbol>
<symbol overflow="visible" id="glyph0-14">
<path style="stroke:none;" d="M 3.3125 -2.859375 C 3.3125 -3.640625 2.796875 -4.078125 1.875 -4.078125 C 0.953125 -4.078125 0.359375 -3.609375 0.359375 -2.875 C 0.359375 -2.25 0.671875 -1.953125 1.609375 -1.734375 L 2.203125 -1.578125 C 2.640625 -1.484375 2.8125 -1.3125 2.8125 -1.03125 C 2.8125 -0.65625 2.453125 -0.40625 1.890625 -0.40625 C 1.546875 -0.40625 1.265625 -0.5 1.109375 -0.671875 C 1.015625 -0.78125 0.96875 -0.90625 0.921875 -1.1875 L 0.25 -1.1875 C 0.28125 -0.265625 0.796875 0.171875 1.84375 0.171875 C 2.84375 0.171875 3.484375 -0.3125 3.484375 -1.078125 C 3.484375 -1.671875 3.140625 -2 2.359375 -2.1875 L 1.75 -2.328125 C 1.234375 -2.453125 1.015625 -2.625 1.015625 -2.90625 C 1.015625 -3.265625 1.34375 -3.5 1.859375 -3.5 C 2.359375 -3.5 2.640625 -3.28125 2.65625 -2.859375 Z M 3.3125 -2.859375 "/>
</symbol>
<symbol overflow="visible" id="glyph0-15">
<path style="stroke:none;" d="M 0.53125 -3.96875 L 0.53125 0 L 1.171875 0 L 1.171875 -2.1875 C 1.171875 -3 1.59375 -3.53125 2.25 -3.53125 C 2.75 -3.53125 3.0625 -3.234375 3.0625 -2.75 L 3.0625 0 L 3.6875 0 L 3.6875 -3 C 3.6875 -3.65625 3.203125 -4.078125 2.4375 -4.078125 C 1.84375 -4.078125 1.46875 -3.859375 1.109375 -3.296875 L 1.109375 -3.96875 Z M 0.53125 -3.96875 "/>
</symbol>
<symbol overflow="visible" id="glyph0-16">
<path style="stroke:none;" d="M 1.0625 -5.53125 L 0.4375 -5.53125 L 0.4375 0 L 1.0625 0 L 1.0625 -1.546875 L 1.6875 -2.15625 L 3.03125 0 L 3.796875 0 L 2.1875 -2.59375 L 3.5625 -3.96875 L 2.75 -3.96875 L 1.0625 -2.28125 Z M 1.0625 -5.53125 "/>
</symbol>
<symbol overflow="visible" id="glyph0-17">
<path style="stroke:none;" d="M 4.203125 0 L 5.359375 -3.96875 L 4.65625 -3.96875 L 3.859375 -0.875 L 3.078125 -3.96875 L 2.3125 -3.96875 L 1.546875 -0.875 L 0.75 -3.96875 L 0.046875 -3.96875 L 1.203125 0 L 1.90625 0 L 2.671875 -3.109375 L 3.484375 0 Z M 4.203125 0 "/>
</symbol>
<symbol overflow="visible" id="glyph1-0">
<path style="stroke:none;" d=""/>
</symbol>
<symbol overflow="visible" id="glyph1-1">
<path style="stroke:none;" d="M 3.65625 0 L 3.65625 -3.96875 L 3.03125 -3.96875 L 3.03125 -1.71875 C 3.03125 -0.90625 2.59375 -0.375 1.9375 -0.375 C 1.4375 -0.375 1.125 -0.6875 1.125 -1.15625 L 1.125 -3.96875 L 0.5 -3.96875 L 0.5 -0.90625 C 0.5 -0.25 0.984375 0.171875 1.765625 0.171875 C 2.34375 0.171875 2.71875 -0.03125 3.078125 -0.546875 L 3.078125 0 Z M 3.65625 0 "/>
</symbol>
<symbol overflow="visible" id="glyph1-2">
<path style="stroke:none;" d="M 0.40625 1.65625 L 1.046875 1.65625 L 1.046875 -0.421875 C 1.375 0 1.75 0.171875 2.265625 0.171875 C 3.28125 0.171875 3.96875 -0.65625 3.96875 -1.921875 C 3.96875 -3.25 3.3125 -4.078125 2.265625 -4.078125 C 1.71875 -4.078125 1.28125 -3.84375 1 -3.375 L 1 -3.96875 L 0.40625 -3.96875 Z M 2.15625 -3.5 C 2.84375 -3.5 3.296875 -2.875 3.296875 -1.9375 C 3.296875 -1.03125 2.84375 -0.421875 2.15625 -0.421875 C 1.484375 -0.421875 1.046875 -1.015625 1.046875 -1.953125 C 1.046875 -2.890625 1.484375 -3.5 2.15625 -3.5 Z M 2.15625 -3.5 "/>
</symbol>
<symbol overflow="visible" id="glyph1-3">
<path style="stroke:none;" d="M 3.75 -5.53125 L 3.125 -5.53125 L 3.125 -3.46875 C 2.859375 -3.875 2.4375 -4.078125 1.90625 -4.078125 C 0.875 -4.078125 0.203125 -3.265625 0.203125 -2 C 0.203125 -0.65625 0.859375 0.171875 1.921875 0.171875 C 2.46875 0.171875 2.84375 -0.03125 3.1875 -0.515625 L 3.1875 0 L 3.75 0 Z M 2.015625 -3.5 C 2.6875 -3.5 3.125 -2.890625 3.125 -1.9375 C 3.125 -1.015625 2.6875 -0.421875 2.015625 -0.421875 C 1.3125 -0.421875 0.859375 -1.03125 0.859375 -1.953125 C 0.859375 -2.875 1.3125 -3.5 2.015625 -3.5 Z M 2.015625 -3.5 "/>
</symbol>
<symbol overflow="visible" id="glyph1-4">
<path style="stroke:none;" d="M 4.046875 -0.375 C 3.984375 -0.359375 3.953125 -0.359375 3.921875 -0.359375 C 3.703125 -0.359375 3.578125 -0.46875 3.578125 -0.671875 L 3.578125 -3 C 3.578125 -3.703125 3.0625 -4.078125 2.078125 -4.078125 C 1.515625 -4.078125 1.03125 -3.921875 0.765625 -3.625 C 0.578125 -3.421875 0.5 -3.1875 0.5 -2.796875 L 1.125 -2.796875 C 1.1875 -3.28125 1.46875 -3.5 2.0625 -3.5 C 2.625 -3.5 2.953125 -3.28125 2.953125 -2.90625 L 2.953125 -2.75 C 2.953125 -2.484375 2.78125 -2.359375 2.28125 -2.296875 C 1.390625 -2.1875 1.265625 -2.15625 1.015625 -2.0625 C 0.546875 -1.875 0.3125 -1.515625 0.3125 -1 C 0.3125 -0.28125 0.8125 0.171875 1.625 0.171875 C 2.125 0.171875 2.53125 0 2.96875 -0.40625 C 3.015625 0 3.21875 0.171875 3.625 0.171875 C 3.75 0.171875 3.84375 0.15625 4.046875 0.109375 Z M 2.953125 -1.25 C 2.953125 -1.03125 2.890625 -0.90625 2.703125 -0.734375 C 2.4375 -0.5 2.125 -0.375 1.765625 -0.375 C 1.265625 -0.375 0.984375 -0.609375 0.984375 -1.015625 C 0.984375 -1.4375 1.265625 -1.640625 1.9375 -1.75 C 2.59375 -1.828125 2.734375 -1.859375 2.953125 -1.96875 Z M 2.953125 -1.25 "/>
</symbol>
<symbol overflow="visible" id="glyph1-5">
<path style="stroke:none;" d="M 1.921875 -3.96875 L 1.265625 -3.96875 L 1.265625 -5.0625 L 0.640625 -5.0625 L 0.640625 -3.96875 L 0.109375 -3.96875 L 0.109375 -3.453125 L 0.640625 -3.453125 L 0.640625 -0.453125 C 0.640625 -0.046875 0.921875 0.171875 1.40625 0.171875 C 1.5625 0.171875 1.71875 0.15625 1.921875 0.125 L 1.921875 -0.40625 C 1.84375 -0.390625 1.75 -0.375 1.625 -0.375 C 1.34375 -0.375 1.265625 -0.453125 1.265625 -0.734375 L 1.265625 -3.453125 L 1.921875 -3.453125 Z M 1.921875 -3.96875 "/>
</symbol>
<symbol overflow="visible" id="glyph1-6">
<path style="stroke:none;" d="M 3.890625 -1.765625 C 3.890625 -2.375 3.84375 -2.75 3.734375 -3.03125 C 3.46875 -3.6875 2.859375 -4.078125 2.125 -4.078125 C 1.015625 -4.078125 0.296875 -3.234375 0.296875 -1.9375 C 0.296875 -0.625 1 0.171875 2.109375 0.171875 C 3.015625 0.171875 3.640625 -0.34375 3.796875 -1.203125 L 3.171875 -1.203125 C 3 -0.6875 2.640625 -0.40625 2.125 -0.40625 C 1.734375 -0.40625 1.390625 -0.59375 1.171875 -0.921875 C 1.015625 -1.15625 0.96875 -1.375 0.96875 -1.765625 Z M 0.984375 -2.28125 C 1.03125 -3.03125 1.484375 -3.5 2.109375 -3.5 C 2.734375 -3.5 3.21875 -2.984375 3.21875 -2.328125 C 3.21875 -2.3125 3.21875 -2.296875 3.203125 -2.28125 Z M 0.984375 -2.28125 "/>
</symbol>
<symbol overflow="visible" id="glyph1-7">
<path style="stroke:none;" d="M 0.515625 -3.96875 L 0.515625 0 L 1.15625 0 L 1.15625 -2.0625 C 1.15625 -2.625 1.296875 -3 1.609375 -3.21875 C 1.796875 -3.359375 2 -3.40625 2.4375 -3.421875 L 2.4375 -4.0625 C 2.328125 -4.078125 2.28125 -4.078125 2.1875 -4.078125 C 1.78125 -4.078125 1.46875 -3.84375 1.109375 -3.25 L 1.109375 -3.96875 Z M 0.515625 -3.96875 "/>
</symbol>
<symbol overflow="visible" id="glyph1-8">
<path style="stroke:none;" d="M 0.53125 -3.96875 L 0.53125 0.578125 C 0.53125 0.96875 0.40625 1.09375 0.015625 1.09375 C 0 1.09375 0 1.09375 -0.140625 1.09375 L -0.140625 1.625 C -0.0625 1.640625 -0.015625 1.65625 0.078125 1.65625 C 0.78125 1.65625 1.15625 1.359375 1.15625 0.828125 L 1.15625 -3.96875 Z M 1.15625 -5.53125 L 0.53125 -5.53125 L 0.53125 -4.734375 L 1.15625 -4.734375 Z M 1.15625 -5.53125 "/>
</symbol>
<symbol overflow="visible" id="glyph1-9">
<path style="stroke:none;" d="M 3.5625 -2.640625 C 3.53125 -3.03125 3.453125 -3.28125 3.296875 -3.5 C 3.03125 -3.859375 2.546875 -4.078125 2 -4.078125 C 0.9375 -4.078125 0.234375 -3.234375 0.234375 -1.921875 C 0.234375 -0.640625 0.921875 0.171875 2 0.171875 C 2.9375 0.171875 3.53125 -0.390625 3.609375 -1.359375 L 2.984375 -1.359375 C 2.875 -0.734375 2.546875 -0.40625 2.015625 -0.40625 C 1.3125 -0.40625 0.890625 -0.984375 0.890625 -1.921875 C 0.890625 -2.90625 1.296875 -3.5 2 -3.5 C 2.53125 -3.5 2.859375 -3.1875 2.9375 -2.640625 Z M 3.5625 -2.640625 "/>
</symbol>
<symbol overflow="visible" id="glyph1-10">
<path style="stroke:none;" d="M 2.0625 -4.078125 C 0.953125 -4.078125 0.265625 -3.28125 0.265625 -1.953125 C 0.265625 -0.625 0.9375 0.171875 2.0625 0.171875 C 3.1875 0.171875 3.859375 -0.625 3.859375 -1.921875 C 3.859375 -3.296875 3.203125 -4.078125 2.0625 -4.078125 Z M 2.0625 -3.5 C 2.78125 -3.5 3.203125 -2.921875 3.203125 -1.9375 C 3.203125 -1 2.765625 -0.40625 2.0625 -0.40625 C 1.359375 -0.40625 0.9375 -1 0.9375 -1.953125 C 0.9375 -2.90625 1.359375 -3.5 2.0625 -3.5 Z M 2.0625 -3.5 "/>
</symbol>
<symbol overflow="visible" id="glyph1-11">
<path style="stroke:none;" d="M 2.9375 -3.96875 L 1.84375 -0.875 L 0.828125 -3.96875 L 0.15625 -3.96875 L 1.5 0.015625 L 1.25 0.640625 C 1.15625 0.921875 1.015625 1.03125 0.75 1.03125 C 0.65625 1.03125 0.546875 1.015625 0.40625 0.984375 L 0.40625 1.546875 C 0.53125 1.625 0.671875 1.65625 0.828125 1.65625 C 1.03125 1.65625 1.265625 1.578125 1.421875 1.46875 C 1.625 1.3125 1.734375 1.15625 1.859375 0.828125 L 3.625 -3.96875 Z M 2.9375 -3.96875 "/>
</symbol>
<symbol overflow="visible" id="glyph2-0">
<path style="stroke:none;" d=""/>
</symbol>
<symbol overflow="visible" id="glyph2-1">
<path style="stroke:none;" d="M 0.40625 1.65625 L 1.046875 1.65625 L 1.046875 -0.421875 C 1.375 0 1.75 0.171875 2.265625 0.171875 C 3.28125 0.171875 3.96875 -0.65625 3.96875 -1.921875 C 3.96875 -3.25 3.3125 -4.078125 2.265625 -4.078125 C 1.71875 -4.078125 1.28125 -3.84375 1 -3.375 L 1 -3.96875 L 0.40625 -3.96875 Z M 2.15625 -3.5 C 2.84375 -3.5 3.296875 -2.875 3.296875 -1.9375 C 3.296875 -1.03125 2.84375 -0.421875 2.15625 -0.421875 C 1.484375 -0.421875 1.046875 -1.015625 1.046875 -1.953125 C 1.046875 -2.890625 1.484375 -3.5 2.15625 -3.5 Z M 2.15625 -3.5 "/>
</symbol>
<symbol overflow="visible" id="glyph2-2">
<path style="stroke:none;" d="M 0.515625 -3.96875 L 0.515625 0 L 1.15625 0 L 1.15625 -2.0625 C 1.15625 -2.625 1.296875 -3 1.609375 -3.21875 C 1.796875 -3.359375 2 -3.40625 2.4375 -3.421875 L 2.4375 -4.0625 C 2.328125 -4.078125 2.28125 -4.078125 2.1875 -4.078125 C 1.78125 -4.078125 1.46875 -3.84375 1.109375 -3.25 L 1.109375 -3.96875 Z M 0.515625 -3.96875 "/>
</symbol>
<symbol overflow="visible" id="glyph2-3">
<path style="stroke:none;" d="M 3.890625 -1.765625 C 3.890625 -2.375 3.84375 -2.75 3.734375 -3.03125 C 3.46875 -3.6875 2.859375 -4.078125 2.125 -4.078125 C 1.015625 -4.078125 0.296875 -3.234375 0.296875 -1.9375 C 0.296875 -0.625 1 0.171875 2.109375 0.171875 C 3.015625 0.171875 3.640625 -0.34375 3.796875 -1.203125 L 3.171875 -1.203125 C 3 -0.6875 2.640625 -0.40625 2.125 -0.40625 C 1.734375 -0.40625 1.390625 -0.59375 1.171875 -0.921875 C 1.015625 -1.15625 0.96875 -1.375 0.96875 -1.765625 Z M 0.984375 -2.28125 C 1.03125 -3.03125 1.484375 -3.5 2.109375 -3.5 C 2.734375 -3.5 3.21875 -2.984375 3.21875 -2.328125 C 3.21875 -2.3125 3.21875 -2.296875 3.203125 -2.28125 Z M 0.984375 -2.28125 "/>
</symbol>
<symbol overflow="visible" id="glyph2-4">
<path style="stroke:none;" d="M 3.75 -5.53125 L 3.125 -5.53125 L 3.125 -3.46875 C 2.859375 -3.875 2.4375 -4.078125 1.90625 -4.078125 C 0.875 -4.078125 0.203125 -3.265625 0.203125 -2 C 0.203125 -0.65625 0.859375 0.171875 1.921875 0.171875 C 2.46875 0.171875 2.84375 -0.03125 3.1875 -0.515625 L 3.1875 0 L 3.75 0 Z M 2.015625 -3.5 C 2.6875 -3.5 3.125 -2.890625 3.125 -1.9375 C 3.125 -1.015625 2.6875 -0.421875 2.015625 -0.421875 C 1.3125 -0.421875 0.859375 -1.03125 0.859375 -1.953125 C 0.859375 -2.875 1.3125 -3.5 2.015625 -3.5 Z M 2.015625 -3.5 "/>
</symbol>
<symbol overflow="visible" id="glyph2-5">
<path style="stroke:none;" d="M 1.140625 -3.96875 L 0.5 -3.96875 L 0.5 0 L 1.140625 0 Z M 1.140625 -5.53125 L 0.5 -5.53125 L 0.5 -4.734375 L 1.140625 -4.734375 Z M 1.140625 -5.53125 "/>
</symbol>
<symbol overflow="visible" id="glyph2-6">
<path style="stroke:none;" d="M 3.5625 -2.640625 C 3.53125 -3.03125 3.453125 -3.28125 3.296875 -3.5 C 3.03125 -3.859375 2.546875 -4.078125 2 -4.078125 C 0.9375 -4.078125 0.234375 -3.234375 0.234375 -1.921875 C 0.234375 -0.640625 0.921875 0.171875 2 0.171875 C 2.9375 0.171875 3.53125 -0.390625 3.609375 -1.359375 L 2.984375 -1.359375 C 2.875 -0.734375 2.546875 -0.40625 2.015625 -0.40625 C 1.3125 -0.40625 0.890625 -0.984375 0.890625 -1.921875 C 0.890625 -2.90625 1.296875 -3.5 2 -3.5 C 2.53125 -3.5 2.859375 -3.1875 2.9375 -2.640625 Z M 3.5625 -2.640625 "/>
</symbol>
<symbol overflow="visible" id="glyph2-7">
<path style="stroke:none;" d="M 1.921875 -3.96875 L 1.265625 -3.96875 L 1.265625 -5.0625 L 0.640625 -5.0625 L 0.640625 -3.96875 L 0.109375 -3.96875 L 0.109375 -3.453125 L 0.640625 -3.453125 L 0.640625 -0.453125 C 0.640625 -0.046875 0.921875 0.171875 1.40625 0.171875 C 1.5625 0.171875 1.71875 0.15625 1.921875 0.125 L 1.921875 -0.40625 C 1.84375 -0.390625 1.75 -0.375 1.625 -0.375 C 1.34375 -0.375 1.265625 -0.453125 1.265625 -0.734375 L 1.265625 -3.453125 L 1.921875 -3.453125 Z M 1.921875 -3.96875 "/>
</symbol>
<symbol overflow="visible" id="glyph2-8">
<path style="stroke:none;" d="M 4.046875 -0.375 C 3.984375 -0.359375 3.953125 -0.359375 3.921875 -0.359375 C 3.703125 -0.359375 3.578125 -0.46875 3.578125 -0.671875 L 3.578125 -3 C 3.578125 -3.703125 3.0625 -4.078125 2.078125 -4.078125 C 1.515625 -4.078125 1.03125 -3.921875 0.765625 -3.625 C 0.578125 -3.421875 0.5 -3.1875 0.5 -2.796875 L 1.125 -2.796875 C 1.1875 -3.28125 1.46875 -3.5 2.0625 -3.5 C 2.625 -3.5 2.953125 -3.28125 2.953125 -2.90625 L 2.953125 -2.75 C 2.953125 -2.484375 2.78125 -2.359375 2.28125 -2.296875 C 1.390625 -2.1875 1.265625 -2.15625 1.015625 -2.0625 C 0.546875 -1.875 0.3125 -1.515625 0.3125 -1 C 0.3125 -0.28125 0.8125 0.171875 1.625 0.171875 C 2.125 0.171875 2.53125 0 2.96875 -0.40625 C 3.015625 0 3.21875 0.171875 3.625 0.171875 C 3.75 0.171875 3.84375 0.15625 4.046875 0.109375 Z M 2.953125 -1.25 C 2.953125 -1.03125 2.890625 -0.90625 2.703125 -0.734375 C 2.4375 -0.5 2.125 -0.375 1.765625 -0.375 C 1.265625 -0.375 0.984375 -0.609375 0.984375 -1.015625 C 0.984375 -1.4375 1.265625 -1.640625 1.9375 -1.75 C 2.59375 -1.828125 2.734375 -1.859375 2.953125 -1.96875 Z M 2.953125 -1.25 "/>
</symbol>
<symbol overflow="visible" id="glyph2-9">
<path style="stroke:none;" d="M 0.53125 -3.96875 L 0.53125 0 L 1.171875 0 L 1.171875 -2.1875 C 1.171875 -3 1.59375 -3.53125 2.25 -3.53125 C 2.75 -3.53125 3.0625 -3.234375 3.0625 -2.75 L 3.0625 0 L 3.6875 0 L 3.6875 -3 C 3.6875 -3.65625 3.203125 -4.078125 2.4375 -4.078125 C 1.84375 -4.078125 1.46875 -3.859375 1.109375 -3.296875 L 1.109375 -3.96875 Z M 0.53125 -3.96875 "/>
</symbol>
<symbol overflow="visible" id="glyph2-10">
<path style="stroke:none;" d="M 3.3125 -2.859375 C 3.3125 -3.640625 2.796875 -4.078125 1.875 -4.078125 C 0.953125 -4.078125 0.359375 -3.609375 0.359375 -2.875 C 0.359375 -2.25 0.671875 -1.953125 1.609375 -1.734375 L 2.203125 -1.578125 C 2.640625 -1.484375 2.8125 -1.3125 2.8125 -1.03125 C 2.8125 -0.65625 2.453125 -0.40625 1.890625 -0.40625 C 1.546875 -0.40625 1.265625 -0.5 1.109375 -0.671875 C 1.015625 -0.78125 0.96875 -0.90625 0.921875 -1.1875 L 0.25 -1.1875 C 0.28125 -0.265625 0.796875 0.171875 1.84375 0.171875 C 2.84375 0.171875 3.484375 -0.3125 3.484375 -1.078125 C 3.484375 -1.671875 3.140625 -2 2.359375 -2.1875 L 1.75 -2.328125 C 1.234375 -2.453125 1.015625 -2.625 1.015625 -2.90625 C 1.015625 -3.265625 1.34375 -3.5 1.859375 -3.5 C 2.359375 -3.5 2.640625 -3.28125 2.65625 -2.859375 Z M 3.3125 -2.859375 "/>
</symbol>
<symbol overflow="visible" id="glyph2-11">
<path style="stroke:none;" d="M 1.953125 -3.96875 L 1.296875 -3.96875 L 1.296875 -4.59375 C 1.296875 -4.859375 1.453125 -5 1.734375 -5 C 1.78125 -5 1.8125 -5 1.953125 -4.984375 L 1.953125 -5.515625 C 1.8125 -5.546875 1.734375 -5.546875 1.59375 -5.546875 C 1.015625 -5.546875 0.671875 -5.21875 0.671875 -4.640625 L 0.671875 -3.96875 L 0.140625 -3.96875 L 0.140625 -3.453125 L 0.671875 -3.453125 L 0.671875 0 L 1.296875 0 L 1.296875 -3.453125 L 1.953125 -3.453125 Z M 1.953125 -3.96875 "/>
</symbol>
<symbol overflow="visible" id="glyph2-12">
<path style="stroke:none;" d="M 2.0625 -4.078125 C 0.953125 -4.078125 0.265625 -3.28125 0.265625 -1.953125 C 0.265625 -0.625 0.9375 0.171875 2.0625 0.171875 C 3.1875 0.171875 3.859375 -0.625 3.859375 -1.921875 C 3.859375 -3.296875 3.203125 -4.078125 2.0625 -4.078125 Z M 2.0625 -3.5 C 2.78125 -3.5 3.203125 -2.921875 3.203125 -1.9375 C 3.203125 -1 2.765625 -0.40625 2.0625 -0.40625 C 1.359375 -0.40625 0.9375 -1 0.9375 -1.953125 C 0.9375 -2.90625 1.359375 -3.5 2.0625 -3.5 Z M 2.0625 -3.5 "/>
</symbol>
<symbol overflow="visible" id="glyph2-13">
<path style="stroke:none;" d="M 0.53125 -3.96875 L 0.53125 0 L 1.171875 0 L 1.171875 -2.5 C 1.171875 -3.0625 1.578125 -3.53125 2.09375 -3.53125 C 2.5625 -3.53125 2.828125 -3.25 2.828125 -2.734375 L 2.828125 0 L 3.46875 0 L 3.46875 -2.5 C 3.46875 -3.0625 3.890625 -3.53125 4.40625 -3.53125 C 4.859375 -3.53125 5.140625 -3.234375 5.140625 -2.734375 L 5.140625 0 L 5.78125 0 L 5.78125 -2.984375 C 5.78125 -3.6875 5.359375 -4.078125 4.625 -4.078125 C 4.09375 -4.078125 3.78125 -3.921875 3.40625 -3.484375 C 3.171875 -3.90625 2.84375 -4.078125 2.328125 -4.078125 C 1.796875 -4.078125 1.453125 -3.890625 1.109375 -3.40625 L 1.109375 -3.96875 Z M 0.53125 -3.96875 "/>
</symbol>
<symbol overflow="visible" id="glyph2-14">
<path style="stroke:none;" d="M 4.203125 0 L 5.359375 -3.96875 L 4.65625 -3.96875 L 3.859375 -0.875 L 3.078125 -3.96875 L 2.3125 -3.96875 L 1.546875 -0.875 L 0.75 -3.96875 L 0.046875 -3.96875 L 1.203125 0 L 1.90625 0 L 2.671875 -3.109375 L 3.484375 0 Z M 4.203125 0 "/>
</symbol>
<symbol overflow="visible" id="glyph2-15">
<path style="stroke:none;" d="M 0.53125 -5.53125 L 0.53125 0 L 1.15625 0 L 1.15625 -2.1875 C 1.15625 -3 1.578125 -3.53125 2.234375 -3.53125 C 2.4375 -3.53125 2.640625 -3.46875 2.796875 -3.34375 C 2.984375 -3.21875 3.046875 -3.03125 3.046875 -2.75 L 3.046875 0 L 3.6875 0 L 3.6875 -3 C 3.6875 -3.671875 3.203125 -4.078125 2.4375 -4.078125 C 1.875 -4.078125 1.53125 -3.90625 1.15625 -3.421875 L 1.15625 -5.53125 Z M 0.53125 -5.53125 "/>
</symbol>
<symbol overflow="visible" id="glyph2-16">
<path style="stroke:none;" d="M 1.90625 -3.96875 L 1.25 -3.96875 L 1.25 -4.59375 C 1.25 -4.859375 1.40625 -5 1.6875 -5 C 1.75 -5 1.765625 -5 1.90625 -4.984375 L 1.90625 -5.515625 C 1.765625 -5.546875 1.6875 -5.546875 1.546875 -5.546875 C 0.96875 -5.546875 0.625 -5.21875 0.625 -4.640625 L 0.625 -3.96875 L 0.09375 -3.96875 L 0.09375 -3.453125 L 0.625 -3.453125 L 0.625 0 L 1.25 0 L 1.25 -3.453125 L 1.90625 -3.453125 Z M 3.296875 -3.96875 L 2.671875 -3.96875 L 2.671875 0 L 3.296875 0 Z M 3.296875 -5.53125 L 2.671875 -5.53125 L 2.671875 -4.734375 L 3.296875 -4.734375 Z M 3.296875 -5.53125 "/>
</symbol>
<symbol overflow="visible" id="glyph2-17">
<path style="stroke:none;" d="M 1.15625 -5.53125 L 0.515625 -5.53125 L 0.515625 0 L 1.15625 0 Z M 1.15625 -5.53125 "/>
</symbol>
<symbol overflow="visible" id="glyph3-0">
<path style="stroke:none;" d=""/>
</symbol>
<symbol overflow="visible" id="glyph3-1">
<path style="stroke:none;" d="M 0.53125 -3.96875 L 0.53125 0 L 1.171875 0 L 1.171875 -2.1875 C 1.171875 -3 1.59375 -3.53125 2.25 -3.53125 C 2.75 -3.53125 3.0625 -3.234375 3.0625 -2.75 L 3.0625 0 L 3.6875 0 L 3.6875 -3 C 3.6875 -3.65625 3.203125 -4.078125 2.4375 -4.078125 C 1.84375 -4.078125 1.46875 -3.859375 1.109375 -3.296875 L 1.109375 -3.96875 Z M 0.53125 -3.96875 "/>
</symbol>
<symbol overflow="visible" id="glyph3-2">
<path style="stroke:none;" d="M 3.890625 -1.765625 C 3.890625 -2.375 3.84375 -2.75 3.734375 -3.03125 C 3.46875 -3.6875 2.859375 -4.078125 2.125 -4.078125 C 1.015625 -4.078125 0.296875 -3.234375 0.296875 -1.9375 C 0.296875 -0.625 1 0.171875 2.109375 0.171875 C 3.015625 0.171875 3.640625 -0.34375 3.796875 -1.203125 L 3.171875 -1.203125 C 3 -0.6875 2.640625 -0.40625 2.125 -0.40625 C 1.734375 -0.40625 1.390625 -0.59375 1.171875 -0.921875 C 1.015625 -1.15625 0.96875 -1.375 0.96875 -1.765625 Z M 0.984375 -2.28125 C 1.03125 -3.03125 1.484375 -3.5 2.109375 -3.5 C 2.734375 -3.5 3.21875 -2.984375 3.21875 -2.328125 C 3.21875 -2.3125 3.21875 -2.296875 3.203125 -2.28125 Z M 0.984375 -2.28125 "/>
</symbol>
<symbol overflow="visible" id="glyph3-3">
<path style="stroke:none;" d="M 4.203125 0 L 5.359375 -3.96875 L 4.65625 -3.96875 L 3.859375 -0.875 L 3.078125 -3.96875 L 2.3125 -3.96875 L 1.546875 -0.875 L 0.75 -3.96875 L 0.046875 -3.96875 L 1.203125 0 L 1.90625 0 L 2.671875 -3.109375 L 3.484375 0 Z M 4.203125 0 "/>
</symbol>
<symbol overflow="visible" id="glyph3-4">
<path style="stroke:none;" d="M 3.3125 -2.859375 C 3.3125 -3.640625 2.796875 -4.078125 1.875 -4.078125 C 0.953125 -4.078125 0.359375 -3.609375 0.359375 -2.875 C 0.359375 -2.25 0.671875 -1.953125 1.609375 -1.734375 L 2.203125 -1.578125 C 2.640625 -1.484375 2.8125 -1.3125 2.8125 -1.03125 C 2.8125 -0.65625 2.453125 -0.40625 1.890625 -0.40625 C 1.546875 -0.40625 1.265625 -0.5 1.109375 -0.671875 C 1.015625 -0.78125 0.96875 -0.90625 0.921875 -1.1875 L 0.25 -1.1875 C 0.28125 -0.265625 0.796875 0.171875 1.84375 0.171875 C 2.84375 0.171875 3.484375 -0.3125 3.484375 -1.078125 C 3.484375 -1.671875 3.140625 -2 2.359375 -2.1875 L 1.75 -2.328125 C 1.234375 -2.453125 1.015625 -2.625 1.015625 -2.90625 C 1.015625 -3.265625 1.34375 -3.5 1.859375 -3.5 C 2.359375 -3.5 2.640625 -3.28125 2.65625 -2.859375 Z M 3.3125 -2.859375 "/>
</symbol>
<symbol overflow="visible" id="glyph3-5">
<path style="stroke:none;" d="M 3.5625 -2.640625 C 3.53125 -3.03125 3.453125 -3.28125 3.296875 -3.5 C 3.03125 -3.859375 2.546875 -4.078125 2 -4.078125 C 0.9375 -4.078125 0.234375 -3.234375 0.234375 -1.921875 C 0.234375 -0.640625 0.921875 0.171875 2 0.171875 C 2.9375 0.171875 3.53125 -0.390625 3.609375 -1.359375 L 2.984375 -1.359375 C 2.875 -0.734375 2.546875 -0.40625 2.015625 -0.40625 C 1.3125 -0.40625 0.890625 -0.984375 0.890625 -1.921875 C 0.890625 -2.90625 1.296875 -3.5 2 -3.5 C 2.53125 -3.5 2.859375 -3.1875 2.9375 -2.640625 Z M 3.5625 -2.640625 "/>
</symbol>
<symbol overflow="visible" id="glyph3-6">
<path style="stroke:none;" d="M 4.046875 -0.375 C 3.984375 -0.359375 3.953125 -0.359375 3.921875 -0.359375 C 3.703125 -0.359375 3.578125 -0.46875 3.578125 -0.671875 L 3.578125 -3 C 3.578125 -3.703125 3.0625 -4.078125 2.078125 -4.078125 C 1.515625 -4.078125 1.03125 -3.921875 0.765625 -3.625 C 0.578125 -3.421875 0.5 -3.1875 0.5 -2.796875 L 1.125 -2.796875 C 1.1875 -3.28125 1.46875 -3.5 2.0625 -3.5 C 2.625 -3.5 2.953125 -3.28125 2.953125 -2.90625 L 2.953125 -2.75 C 2.953125 -2.484375 2.78125 -2.359375 2.28125 -2.296875 C 1.390625 -2.1875 1.265625 -2.15625 1.015625 -2.0625 C 0.546875 -1.875 0.3125 -1.515625 0.3125 -1 C 0.3125 -0.28125 0.8125 0.171875 1.625 0.171875 C 2.125 0.171875 2.53125 0 2.96875 -0.40625 C 3.015625 0 3.21875 0.171875 3.625 0.171875 C 3.75 0.171875 3.84375 0.15625 4.046875 0.109375 Z M 2.953125 -1.25 C 2.953125 -1.03125 2.890625 -0.90625 2.703125 -0.734375 C 2.4375 -0.5 2.125 -0.375 1.765625 -0.375 C 1.265625 -0.375 0.984375 -0.609375 0.984375 -1.015625 C 0.984375 -1.4375 1.265625 -1.640625 1.9375 -1.75 C 2.59375 -1.828125 2.734375 -1.859375 2.953125 -1.96875 Z M 2.953125 -1.25 "/>
</symbol>
<symbol overflow="visible" id="glyph4-0">
<path style="stroke:none;" d=""/>
</symbol>
<symbol overflow="visible" id="glyph4-1">
<path style="stroke:none;" d="M -2.859375 -3.3125 C -3.640625 -3.3125 -4.078125 -2.796875 -4.078125 -1.875 C -4.078125 -0.953125 -3.609375 -0.359375 -2.875 -0.359375 C -2.25 -0.359375 -1.953125 -0.671875 -1.734375 -1.609375 L -1.578125 -2.203125 C -1.484375 -2.640625 -1.3125 -2.8125 -1.03125 -2.8125 C -0.65625 -2.8125 -0.40625 -2.453125 -0.40625 -1.890625 C -0.40625 -1.546875 -0.5 -1.265625 -0.671875 -1.109375 C -0.78125 -1.015625 -0.90625 -0.96875 -1.1875 -0.921875 L -1.1875 -0.25 C -0.265625 -0.28125 0.171875 -0.796875 0.171875 -1.84375 C 0.171875 -2.84375 -0.3125 -3.484375 -1.078125 -3.484375 C -1.671875 -3.484375 -2 -3.140625 -2.1875 -2.359375 L -2.328125 -1.75 C -2.453125 -1.234375 -2.625 -1.015625 -2.90625 -1.015625 C -3.265625 -1.015625 -3.5 -1.34375 -3.5 -1.859375 C -3.5 -2.359375 -3.28125 -2.640625 -2.859375 -2.65625 Z M -2.859375 -3.3125 "/>
</symbol>
<symbol overflow="visible" id="glyph4-2">
<path style="stroke:none;" d="M -5.53125 -1.15625 L -5.53125 -0.515625 L 0 -0.515625 L 0 -1.15625 Z M -5.53125 -1.15625 "/>
</symbol>
<symbol overflow="visible" id="glyph4-3">
<path style="stroke:none;" d="M -0.375 -4.046875 C -0.359375 -3.984375 -0.359375 -3.953125 -0.359375 -3.921875 C -0.359375 -3.703125 -0.46875 -3.578125 -0.671875 -3.578125 L -3 -3.578125 C -3.703125 -3.578125 -4.078125 -3.0625 -4.078125 -2.078125 C -4.078125 -1.515625 -3.921875 -1.03125 -3.625 -0.765625 C -3.421875 -0.578125 -3.1875 -0.5 -2.796875 -0.5 L -2.796875 -1.125 C -3.28125 -1.1875 -3.5 -1.46875 -3.5 -2.0625 C -3.5 -2.625 -3.28125 -2.953125 -2.90625 -2.953125 L -2.75 -2.953125 C -2.484375 -2.953125 -2.359375 -2.78125 -2.296875 -2.28125 C -2.1875 -1.390625 -2.15625 -1.265625 -2.0625 -1.015625 C -1.875 -0.546875 -1.515625 -0.3125 -1 -0.3125 C -0.28125 -0.3125 0.171875 -0.8125 0.171875 -1.625 C 0.171875 -2.125 0 -2.53125 -0.40625 -2.96875 C 0 -3.015625 0.171875 -3.21875 0.171875 -3.625 C 0.171875 -3.75 0.15625 -3.84375 0.109375 -4.046875 Z M -1.25 -2.953125 C -1.03125 -2.953125 -0.90625 -2.890625 -0.734375 -2.703125 C -0.5 -2.4375 -0.375 -2.125 -0.375 -1.765625 C -0.375 -1.265625 -0.609375 -0.984375 -1.015625 -0.984375 C -1.4375 -0.984375 -1.640625 -1.265625 -1.75 -1.9375 C -1.828125 -2.59375 -1.859375 -2.734375 -1.96875 -2.953125 Z M -1.25 -2.953125 "/>
</symbol>
<symbol overflow="visible" id="glyph4-4">
<path style="stroke:none;" d="M -3.96875 -0.53125 L 0 -0.53125 L 0 -1.171875 L -2.5 -1.171875 C -3.0625 -1.171875 -3.53125 -1.578125 -3.53125 -2.09375 C -3.53125 -2.5625 -3.25 -2.828125 -2.734375 -2.828125 L 0 -2.828125 L 0 -3.46875 L -2.5 -3.46875 C -3.0625 -3.46875 -3.53125 -3.890625 -3.53125 -4.40625 C -3.53125 -4.859375 -3.234375 -5.140625 -2.734375 -5.140625 L 0 -5.140625 L 0 -5.78125 L -2.984375 -5.78125 C -3.6875 -5.78125 -4.078125 -5.359375 -4.078125 -4.625 C -4.078125 -4.09375 -3.921875 -3.78125 -3.484375 -3.40625 C -3.90625 -3.171875 -4.078125 -2.84375 -4.078125 -2.328125 C -4.078125 -1.796875 -3.890625 -1.453125 -3.40625 -1.109375 L -3.96875 -1.109375 Z M -3.96875 -0.53125 "/>
</symbol>
<symbol overflow="visible" id="glyph4-5">
<path style="stroke:none;" d="M -5.53125 -0.40625 L 0 -0.40625 L 0 -0.984375 L -0.5 -0.984375 C -0.046875 -1.28125 0.171875 -1.6875 0.171875 -2.234375 C 0.171875 -3.28125 -0.6875 -3.96875 -2 -3.96875 C -3.28125 -3.96875 -4.078125 -3.3125 -4.078125 -2.265625 C -4.078125 -1.71875 -3.875 -1.328125 -3.4375 -1.03125 L -5.53125 -1.03125 Z M -3.5 -2.140625 C -3.5 -2.84375 -2.875 -3.296875 -1.9375 -3.296875 C -1.03125 -3.296875 -0.421875 -2.828125 -0.421875 -2.140625 C -0.421875 -1.484375 -1.015625 -1.03125 -1.953125 -1.03125 C -2.890625 -1.03125 -3.5 -1.484375 -3.5 -2.140625 Z M -3.5 -2.140625 "/>
</symbol>
<symbol overflow="visible" id="glyph4-6">
<path style="stroke:none;" d="M -2.359375 -2.15625 L -2.359375 -0.34375 L -1.8125 -0.34375 L -1.8125 -2.15625 Z M -2.359375 -2.15625 "/>
</symbol>
<symbol overflow="visible" id="glyph4-7">
<path style="stroke:none;" d="M 0 -2.15625 L -3.96875 -3.6875 L -3.96875 -2.96875 L -0.75 -1.84375 L -3.96875 -0.78125 L -3.96875 -0.078125 L 0 -1.46875 Z M 0 -2.15625 "/>
</symbol>
<symbol overflow="visible" id="glyph4-8">
<path style="stroke:none;" d="M -3.96875 -1.140625 L -3.96875 -0.5 L 0 -0.5 L 0 -1.140625 Z M -5.53125 -1.140625 L -5.53125 -0.5 L -4.734375 -0.5 L -4.734375 -1.140625 Z M -5.53125 -1.140625 "/>
</symbol>
<symbol overflow="visible" id="glyph4-9">
<path style="stroke:none;" d="M 0 -3.65625 L -3.96875 -3.65625 L -3.96875 -3.03125 L -1.71875 -3.03125 C -0.90625 -3.03125 -0.375 -2.59375 -0.375 -1.9375 C -0.375 -1.4375 -0.6875 -1.125 -1.15625 -1.125 L -3.96875 -1.125 L -3.96875 -0.5 L -0.90625 -0.5 C -0.25 -0.5 0.171875 -0.984375 0.171875 -1.765625 C 0.171875 -2.34375 -0.03125 -2.71875 -0.546875 -3.078125 L 0 -3.078125 Z M 0 -3.65625 "/>
</symbol>
<symbol overflow="visible" id="glyph4-10">
<path style="stroke:none;" d="M -3.96875 -3.359375 L -3.96875 -0.390625 L -3.421875 -0.390625 L -3.421875 -2.609375 L -0.5625 -0.234375 L 0 -0.234375 L 0 -3.46875 L -0.546875 -3.46875 L -0.546875 -1 L -3.40625 -3.359375 Z M -3.96875 -3.359375 "/>
</symbol>
<symbol overflow="visible" id="glyph4-11">
<path style="stroke:none;" d="M -3.96875 -1.921875 L -3.96875 -1.265625 L -5.0625 -1.265625 L -5.0625 -0.640625 L -3.96875 -0.640625 L -3.96875 -0.109375 L -3.453125 -0.109375 L -3.453125 -0.640625 L -0.453125 -0.640625 C -0.046875 -0.640625 0.171875 -0.921875 0.171875 -1.40625 C 0.171875 -1.5625 0.15625 -1.71875 0.125 -1.921875 L -0.40625 -1.921875 C -0.390625 -1.84375 -0.375 -1.75 -0.375 -1.625 C -0.375 -1.34375 -0.453125 -1.265625 -0.734375 -1.265625 L -3.453125 -1.265625 L -3.453125 -1.921875 Z M -3.96875 -1.921875 "/>
</symbol>
<symbol overflow="visible" id="glyph4-12">
<path style="stroke:none;" d="M -4.078125 -2.0625 C -4.078125 -0.953125 -3.28125 -0.265625 -1.953125 -0.265625 C -0.625 -0.265625 0.171875 -0.9375 0.171875 -2.0625 C 0.171875 -3.1875 -0.625 -3.859375 -1.921875 -3.859375 C -3.296875 -3.859375 -4.078125 -3.203125 -4.078125 -2.0625 Z M -3.5 -2.0625 C -3.5 -2.78125 -2.921875 -3.203125 -1.9375 -3.203125 C -1 -3.203125 -0.40625 -2.765625 -0.40625 -2.0625 C -0.40625 -1.359375 -1 -0.9375 -1.953125 -0.9375 C -2.90625 -0.9375 -3.5 -1.359375 -3.5 -2.0625 Z M -3.5 -2.0625 "/>
</symbol>
<symbol overflow="visible" id="glyph4-13">
<path style="stroke:none;" d="M -3.96875 -0.53125 L 0 -0.53125 L 0 -1.171875 L -2.1875 -1.171875 C -3 -1.171875 -3.53125 -1.59375 -3.53125 -2.25 C -3.53125 -2.75 -3.234375 -3.0625 -2.75 -3.0625 L 0 -3.0625 L 0 -3.6875 L -3 -3.6875 C -3.65625 -3.6875 -4.078125 -3.203125 -4.078125 -2.4375 C -4.078125 -1.84375 -3.859375 -1.46875 -3.296875 -1.109375 L -3.96875 -1.109375 Z M -3.96875 -0.53125 "/>
</symbol>
<symbol overflow="visible" id="glyph5-0">
<path style="stroke:none;" d=""/>
</symbol>
<symbol overflow="visible" id="glyph5-1">
<path style="stroke:none;" d="M 2.15625 -4.46875 L 1.4375 -4.46875 L 1.4375 -5.6875 L 0.71875 -5.6875 L 0.71875 -4.46875 L 0.125 -4.46875 L 0.125 -3.890625 L 0.71875 -3.890625 L 0.71875 -0.515625 C 0.71875 -0.0625 1.03125 0.203125 1.578125 0.203125 C 1.75 0.203125 1.921875 0.171875 2.15625 0.140625 L 2.15625 -0.453125 C 2.0625 -0.4375 1.953125 -0.421875 1.828125 -0.421875 C 1.515625 -0.421875 1.4375 -0.515625 1.4375 -0.828125 L 1.4375 -3.890625 L 2.15625 -3.890625 Z M 2.15625 -4.46875 "/>
</symbol>
<symbol overflow="visible" id="glyph5-2">
<path style="stroke:none;" d="M 0.59375 -6.203125 L 0.59375 0 L 1.296875 0 L 1.296875 -2.46875 C 1.296875 -3.375 1.78125 -3.96875 2.515625 -3.96875 C 2.734375 -3.96875 2.96875 -3.890625 3.140625 -3.765625 C 3.34375 -3.625 3.4375 -3.40625 3.4375 -3.09375 L 3.4375 0 L 4.140625 0 L 4.140625 -3.375 C 4.140625 -4.125 3.609375 -4.59375 2.734375 -4.59375 C 2.109375 -4.59375 1.71875 -4.390625 1.296875 -3.84375 L 1.296875 -6.203125 Z M 0.59375 -6.203125 "/>
</symbol>
<symbol overflow="visible" id="glyph5-3">
<path style="stroke:none;" d="M 0.59375 -4.46875 L 0.59375 0 L 1.296875 0 L 1.296875 -2.3125 C 1.296875 -2.953125 1.46875 -3.375 1.8125 -3.625 C 2.03125 -3.78125 2.234375 -3.828125 2.734375 -3.84375 L 2.734375 -4.5625 C 2.609375 -4.578125 2.546875 -4.59375 2.46875 -4.59375 C 2 -4.59375 1.65625 -4.3125 1.25 -3.65625 L 1.25 -4.46875 Z M 0.59375 -4.46875 "/>
</symbol>
<symbol overflow="visible" id="glyph5-4">
<path style="stroke:none;" d="M 4.375 -2 C 4.375 -2.671875 4.3125 -3.078125 4.1875 -3.421875 C 3.90625 -4.140625 3.21875 -4.59375 2.390625 -4.59375 C 1.140625 -4.59375 0.34375 -3.640625 0.34375 -2.171875 C 0.34375 -0.703125 1.109375 0.203125 2.375 0.203125 C 3.390625 0.203125 4.09375 -0.390625 4.28125 -1.359375 L 3.5625 -1.359375 C 3.359375 -0.765625 2.96875 -0.453125 2.390625 -0.453125 C 1.9375 -0.453125 1.5625 -0.671875 1.3125 -1.03125 C 1.15625 -1.296875 1.09375 -1.546875 1.078125 -2 Z M 1.09375 -2.578125 C 1.15625 -3.390625 1.65625 -3.9375 2.375 -3.9375 C 3.078125 -3.9375 3.609375 -3.359375 3.609375 -2.625 C 3.609375 -2.609375 3.609375 -2.59375 3.609375 -2.578125 Z M 1.09375 -2.578125 "/>
</symbol>
<symbol overflow="visible" id="glyph5-5">
<path style="stroke:none;" d="M 4.5625 -0.421875 C 4.484375 -0.40625 4.4375 -0.40625 4.40625 -0.40625 C 4.15625 -0.40625 4.015625 -0.53125 4.015625 -0.75 L 4.015625 -3.375 C 4.015625 -4.171875 3.4375 -4.59375 2.34375 -4.59375 C 1.6875 -4.59375 1.15625 -4.40625 0.859375 -4.078125 C 0.65625 -3.84375 0.578125 -3.578125 0.546875 -3.140625 L 1.265625 -3.140625 C 1.328125 -3.6875 1.65625 -3.9375 2.3125 -3.9375 C 2.953125 -3.9375 3.3125 -3.703125 3.3125 -3.265625 L 3.3125 -3.078125 C 3.3125 -2.78125 3.140625 -2.65625 2.578125 -2.59375 C 1.5625 -2.46875 1.40625 -2.421875 1.140625 -2.3125 C 0.625 -2.109375 0.359375 -1.703125 0.359375 -1.125 C 0.359375 -0.3125 0.921875 0.203125 1.828125 0.203125 C 2.390625 0.203125 2.828125 0 3.34375 -0.453125 C 3.390625 -0.015625 3.609375 0.203125 4.078125 0.203125 C 4.21875 0.203125 4.328125 0.171875 4.5625 0.125 Z M 3.3125 -1.40625 C 3.3125 -1.171875 3.25 -1.015625 3.03125 -0.828125 C 2.734375 -0.5625 2.390625 -0.421875 1.96875 -0.421875 C 1.421875 -0.421875 1.09375 -0.6875 1.09375 -1.140625 C 1.09375 -1.609375 1.40625 -1.84375 2.171875 -1.953125 C 2.921875 -2.0625 3.078125 -2.09375 3.3125 -2.203125 Z M 3.3125 -1.40625 "/>
</symbol>
<symbol overflow="visible" id="glyph5-6">
<path style="stroke:none;" d="M 4.21875 -6.203125 L 3.515625 -6.203125 L 3.515625 -3.90625 C 3.203125 -4.34375 2.734375 -4.59375 2.140625 -4.59375 C 0.984375 -4.59375 0.21875 -3.65625 0.21875 -2.234375 C 0.21875 -0.734375 0.96875 0.203125 2.15625 0.203125 C 2.78125 0.203125 3.203125 -0.03125 3.578125 -0.59375 L 3.578125 0 L 4.21875 0 Z M 2.25 -3.921875 C 3.015625 -3.921875 3.515625 -3.25 3.515625 -2.1875 C 3.515625 -1.15625 3.015625 -0.46875 2.265625 -0.46875 C 1.484375 -0.46875 0.96875 -1.15625 0.96875 -2.203125 C 0.96875 -3.234375 1.484375 -3.921875 2.25 -3.921875 Z M 2.25 -3.921875 "/>
</symbol>
<symbol overflow="visible" id="glyph5-7">
<path style="stroke:none;" d="M 0.59375 -4.46875 L 0.59375 0 L 1.3125 0 L 1.3125 -2.796875 C 1.3125 -3.453125 1.78125 -3.96875 2.359375 -3.96875 C 2.890625 -3.96875 3.1875 -3.640625 3.1875 -3.078125 L 3.1875 0 L 3.90625 0 L 3.90625 -2.796875 C 3.90625 -3.453125 4.375 -3.96875 4.953125 -3.96875 C 5.46875 -3.96875 5.78125 -3.640625 5.78125 -3.078125 L 5.78125 0 L 6.484375 0 L 6.484375 -3.34375 C 6.484375 -4.140625 6.03125 -4.59375 5.1875 -4.59375 C 4.59375 -4.59375 4.234375 -4.40625 3.828125 -3.90625 C 3.5625 -4.390625 3.203125 -4.59375 2.625 -4.59375 C 2.03125 -4.59375 1.640625 -4.375 1.25 -3.828125 L 1.25 -4.46875 Z M 0.59375 -4.46875 "/>
</symbol>
<symbol overflow="visible" id="glyph5-8">
<path style="stroke:none;" d="M 1.28125 -4.46875 L 0.578125 -4.46875 L 0.578125 0 L 1.28125 0 Z M 1.28125 -6.203125 L 0.5625 -6.203125 L 0.5625 -5.3125 L 1.28125 -5.3125 Z M 1.28125 -6.203125 "/>
</symbol>
<symbol overflow="visible" id="glyph5-9">
<path style="stroke:none;" d="M 0.59375 -4.46875 L 0.59375 0 L 1.3125 0 L 1.3125 -2.46875 C 1.3125 -3.375 1.78125 -3.96875 2.515625 -3.96875 C 3.078125 -3.96875 3.4375 -3.625 3.4375 -3.09375 L 3.4375 0 L 4.140625 0 L 4.140625 -3.375 C 4.140625 -4.109375 3.59375 -4.59375 2.734375 -4.59375 C 2.0625 -4.59375 1.640625 -4.328125 1.25 -3.71875 L 1.25 -4.46875 Z M 0.59375 -4.46875 "/>
</symbol>
<symbol overflow="visible" id="glyph6-0">
<path style="stroke:none;" d=""/>
</symbol>
<symbol overflow="visible" id="glyph6-1">
<path style="stroke:none;" d="M 2.625 -3.875 L 2.1875 -3.875 L 2.1875 -2.4375 C 2 -2.71875 1.703125 -2.859375 1.328125 -2.859375 C 0.609375 -2.859375 0.140625 -2.28125 0.140625 -1.390625 C 0.140625 -0.453125 0.59375 0.125 1.34375 0.125 C 1.734375 0.125 2 -0.015625 2.234375 -0.359375 L 2.234375 0 L 2.625 0 Z M 1.40625 -2.453125 C 1.890625 -2.453125 2.1875 -2.03125 2.1875 -1.359375 C 2.1875 -0.71875 1.875 -0.296875 1.40625 -0.296875 C 0.921875 -0.296875 0.59375 -0.71875 0.59375 -1.375 C 0.59375 -2.015625 0.921875 -2.453125 1.40625 -2.453125 Z M 1.40625 -2.453125 "/>
</symbol>
<symbol overflow="visible" id="glyph6-2">
<path style="stroke:none;" d="M 2.84375 -0.265625 C 2.796875 -0.25 2.765625 -0.25 2.75 -0.25 C 2.59375 -0.25 2.5 -0.328125 2.5 -0.46875 L 2.5 -2.109375 C 2.5 -2.59375 2.140625 -2.859375 1.453125 -2.859375 C 1.0625 -2.859375 0.71875 -2.75 0.53125 -2.546875 C 0.40625 -2.390625 0.359375 -2.234375 0.34375 -1.953125 L 0.796875 -1.953125 C 0.828125 -2.296875 1.03125 -2.453125 1.4375 -2.453125 C 1.84375 -2.453125 2.0625 -2.3125 2.0625 -2.046875 L 2.0625 -1.921875 C 2.0625 -1.734375 1.953125 -1.65625 1.609375 -1.609375 C 0.984375 -1.53125 0.875 -1.515625 0.71875 -1.4375 C 0.390625 -1.3125 0.21875 -1.0625 0.21875 -0.703125 C 0.21875 -0.203125 0.578125 0.125 1.140625 0.125 C 1.484375 0.125 1.765625 0 2.078125 -0.28125 C 2.109375 0 2.25 0.125 2.546875 0.125 C 2.625 0.125 2.703125 0.109375 2.84375 0.078125 Z M 2.0625 -0.875 C 2.0625 -0.734375 2.03125 -0.640625 1.890625 -0.515625 C 1.703125 -0.34375 1.5 -0.265625 1.234375 -0.265625 C 0.890625 -0.265625 0.6875 -0.4375 0.6875 -0.71875 C 0.6875 -1 0.875 -1.15625 1.359375 -1.21875 C 1.828125 -1.28125 1.921875 -1.3125 2.0625 -1.375 Z M 2.0625 -0.875 "/>
</symbol>
<symbol overflow="visible" id="glyph6-3">
<path style="stroke:none;" d="M 1.34375 -2.78125 L 0.890625 -2.78125 L 0.890625 -3.546875 L 0.453125 -3.546875 L 0.453125 -2.78125 L 0.078125 -2.78125 L 0.078125 -2.421875 L 0.453125 -2.421875 L 0.453125 -0.3125 C 0.453125 -0.03125 0.640625 0.125 0.984375 0.125 C 1.09375 0.125 1.203125 0.109375 1.34375 0.078125 L 1.34375 -0.28125 C 1.296875 -0.265625 1.21875 -0.265625 1.140625 -0.265625 C 0.953125 -0.265625 0.890625 -0.3125 0.890625 -0.515625 L 0.890625 -2.421875 L 1.34375 -2.421875 Z M 1.34375 -2.78125 "/>
</symbol>
<symbol overflow="visible" id="glyph6-4">
<path style="stroke:none;" d="M 2.5 -1.84375 C 2.484375 -2.125 2.421875 -2.296875 2.3125 -2.453125 C 2.125 -2.703125 1.796875 -2.859375 1.40625 -2.859375 C 0.65625 -2.859375 0.171875 -2.265625 0.171875 -1.34375 C 0.171875 -0.453125 0.640625 0.125 1.390625 0.125 C 2.0625 0.125 2.484375 -0.28125 2.53125 -0.953125 L 2.09375 -0.953125 C 2.015625 -0.515625 1.78125 -0.28125 1.40625 -0.28125 C 0.921875 -0.28125 0.625 -0.6875 0.625 -1.34375 C 0.625 -2.046875 0.90625 -2.453125 1.390625 -2.453125 C 1.765625 -2.453125 2 -2.234375 2.0625 -1.84375 Z M 2.5 -1.84375 "/>
</symbol>
<symbol overflow="visible" id="glyph6-5">
<path style="stroke:none;" d="M 1.4375 -2.859375 C 0.65625 -2.859375 0.1875 -2.3125 0.1875 -1.375 C 0.1875 -0.4375 0.65625 0.125 1.453125 0.125 C 2.234375 0.125 2.703125 -0.4375 2.703125 -1.34375 C 2.703125 -2.3125 2.25 -2.859375 1.4375 -2.859375 Z M 1.453125 -2.453125 C 1.953125 -2.453125 2.25 -2.046875 2.25 -1.359375 C 2.25 -0.703125 1.9375 -0.28125 1.453125 -0.28125 C 0.953125 -0.28125 0.65625 -0.703125 0.65625 -1.375 C 0.65625 -2.046875 0.953125 -2.453125 1.453125 -2.453125 Z M 1.453125 -2.453125 "/>
</symbol>
<symbol overflow="visible" id="glyph6-6">
<path style="stroke:none;" d="M 0.375 -2.78125 L 0.375 0 L 0.8125 0 L 0.8125 -1.53125 C 0.8125 -2.109375 1.109375 -2.46875 1.578125 -2.46875 C 1.921875 -2.46875 2.140625 -2.265625 2.140625 -1.921875 L 2.140625 0 L 2.59375 0 L 2.59375 -2.109375 C 2.59375 -2.5625 2.234375 -2.859375 1.703125 -2.859375 C 1.296875 -2.859375 1.03125 -2.703125 0.78125 -2.3125 L 0.78125 -2.78125 Z M 0.375 -2.78125 "/>
</symbol>
<symbol overflow="visible" id="glyph6-7">
<path style="stroke:none;" d="M 0.359375 -2.78125 L 0.359375 0 L 0.8125 0 L 0.8125 -1.4375 C 0.8125 -1.84375 0.90625 -2.109375 1.125 -2.25 C 1.265625 -2.359375 1.390625 -2.390625 1.703125 -2.390625 L 1.703125 -2.84375 C 1.625 -2.859375 1.59375 -2.859375 1.53125 -2.859375 C 1.25 -2.859375 1.03125 -2.6875 0.78125 -2.28125 L 0.78125 -2.78125 Z M 0.359375 -2.78125 "/>
</symbol>
<symbol overflow="visible" id="glyph6-8">
<path style="stroke:none;" d="M 0.8125 -3.875 L 0.359375 -3.875 L 0.359375 0 L 0.8125 0 Z M 0.8125 -3.875 "/>
</symbol>
<symbol overflow="visible" id="glyph7-0">
<path style="stroke:none;" d=""/>
</symbol>
<symbol overflow="visible" id="glyph7-1">
<path style="stroke:none;" d="M 0.359375 -2.78125 L 0.359375 0 L 0.8125 0 L 0.8125 -1.4375 C 0.8125 -1.84375 0.90625 -2.109375 1.125 -2.25 C 1.265625 -2.359375 1.390625 -2.390625 1.703125 -2.390625 L 1.703125 -2.84375 C 1.625 -2.859375 1.59375 -2.859375 1.53125 -2.859375 C 1.25 -2.859375 1.03125 -2.6875 0.78125 -2.28125 L 0.78125 -2.78125 Z M 0.359375 -2.78125 "/>
</symbol>
<symbol overflow="visible" id="glyph7-2">
<path style="stroke:none;" d="M 2.71875 -1.25 C 2.71875 -1.671875 2.6875 -1.921875 2.609375 -2.125 C 2.4375 -2.59375 2.015625 -2.859375 1.484375 -2.859375 C 0.71875 -2.859375 0.21875 -2.265625 0.21875 -1.359375 C 0.21875 -0.4375 0.703125 0.125 1.484375 0.125 C 2.109375 0.125 2.5625 -0.234375 2.671875 -0.84375 L 2.21875 -0.84375 C 2.09375 -0.484375 1.84375 -0.28125 1.5 -0.28125 C 1.21875 -0.28125 0.96875 -0.421875 0.828125 -0.640625 C 0.71875 -0.8125 0.6875 -0.96875 0.671875 -1.25 Z M 0.6875 -1.609375 C 0.71875 -2.125 1.03125 -2.453125 1.484375 -2.453125 C 1.921875 -2.453125 2.25 -2.09375 2.25 -1.640625 C 2.25 -1.625 2.25 -1.609375 2.25 -1.609375 Z M 0.6875 -1.609375 "/>
</symbol>
<symbol overflow="visible" id="glyph7-3">
<path style="stroke:none;" d="M 0.8125 -3.875 L 0.359375 -3.875 L 0.359375 0 L 0.8125 0 Z M 0.8125 -3.875 "/>
</symbol>
<symbol overflow="visible" id="glyph7-4">
<path style="stroke:none;" d="M 1.015625 -0.546875 L 0.46875 -0.546875 L 0.46875 0 L 1.015625 0 Z M 1.015625 -0.546875 "/>
</symbol>
<symbol overflow="visible" id="glyph7-5">
<path style="stroke:none;" d="M 1.34375 -2.78125 L 0.890625 -2.78125 L 0.890625 -3.546875 L 0.453125 -3.546875 L 0.453125 -2.78125 L 0.078125 -2.78125 L 0.078125 -2.421875 L 0.453125 -2.421875 L 0.453125 -0.3125 C 0.453125 -0.03125 0.640625 0.125 0.984375 0.125 C 1.09375 0.125 1.203125 0.109375 1.34375 0.078125 L 1.34375 -0.28125 C 1.296875 -0.265625 1.21875 -0.265625 1.140625 -0.265625 C 0.953125 -0.265625 0.890625 -0.3125 0.890625 -0.515625 L 0.890625 -2.421875 L 1.34375 -2.421875 Z M 1.34375 -2.78125 "/>
</symbol>
<symbol overflow="visible" id="glyph7-6">
<path style="stroke:none;" d="M 2.84375 -0.265625 C 2.796875 -0.25 2.765625 -0.25 2.75 -0.25 C 2.59375 -0.25 2.5 -0.328125 2.5 -0.46875 L 2.5 -2.109375 C 2.5 -2.59375 2.140625 -2.859375 1.453125 -2.859375 C 1.0625 -2.859375 0.71875 -2.75 0.53125 -2.546875 C 0.40625 -2.390625 0.359375 -2.234375 0.34375 -1.953125 L 0.796875 -1.953125 C 0.828125 -2.296875 1.03125 -2.453125 1.4375 -2.453125 C 1.84375 -2.453125 2.0625 -2.3125 2.0625 -2.046875 L 2.0625 -1.921875 C 2.0625 -1.734375 1.953125 -1.65625 1.609375 -1.609375 C 0.984375 -1.53125 0.875 -1.515625 0.71875 -1.4375 C 0.390625 -1.3125 0.21875 -1.0625 0.21875 -0.703125 C 0.21875 -0.203125 0.578125 0.125 1.140625 0.125 C 1.484375 0.125 1.765625 0 2.078125 -0.28125 C 2.109375 0 2.25 0.125 2.546875 0.125 C 2.625 0.125 2.703125 0.109375 2.84375 0.078125 Z M 2.0625 -0.875 C 2.0625 -0.734375 2.03125 -0.640625 1.890625 -0.515625 C 1.703125 -0.34375 1.5 -0.265625 1.234375 -0.265625 C 0.890625 -0.265625 0.6875 -0.4375 0.6875 -0.71875 C 0.6875 -1 0.875 -1.15625 1.359375 -1.21875 C 1.828125 -1.28125 1.921875 -1.3125 2.0625 -1.375 Z M 2.0625 -0.875 "/>
</symbol>
<symbol overflow="visible" id="glyph7-7">
<path style="stroke:none;" d="M 0.375 -2.78125 L 0.375 0 L 0.8125 0 L 0.8125 -1.53125 C 0.8125 -2.109375 1.109375 -2.46875 1.578125 -2.46875 C 1.921875 -2.46875 2.140625 -2.265625 2.140625 -1.921875 L 2.140625 0 L 2.59375 0 L 2.59375 -2.109375 C 2.59375 -2.5625 2.234375 -2.859375 1.703125 -2.859375 C 1.296875 -2.859375 1.03125 -2.703125 0.78125 -2.3125 L 0.78125 -2.78125 Z M 0.375 -2.78125 "/>
</symbol>
<symbol overflow="visible" id="glyph7-8">
<path style="stroke:none;" d="M 2.328125 -2.015625 C 2.328125 -2.5625 1.953125 -2.859375 1.3125 -2.859375 C 0.671875 -2.859375 0.25 -2.53125 0.25 -2.015625 C 0.25 -1.578125 0.46875 -1.375 1.125 -1.21875 L 1.546875 -1.109375 C 1.859375 -1.03125 1.96875 -0.921875 1.96875 -0.71875 C 1.96875 -0.46875 1.71875 -0.28125 1.328125 -0.28125 C 1.09375 -0.28125 0.890625 -0.359375 0.78125 -0.46875 C 0.703125 -0.546875 0.671875 -0.625 0.640625 -0.828125 L 0.1875 -0.828125 C 0.203125 -0.1875 0.5625 0.125 1.296875 0.125 C 1.984375 0.125 2.4375 -0.21875 2.4375 -0.765625 C 2.4375 -1.171875 2.203125 -1.40625 1.65625 -1.53125 L 1.234375 -1.640625 C 0.859375 -1.71875 0.71875 -1.84375 0.71875 -2.03125 C 0.71875 -2.296875 0.9375 -2.453125 1.296875 -2.453125 C 1.65625 -2.453125 1.84375 -2.296875 1.859375 -2.015625 Z M 2.328125 -2.015625 "/>
</symbol>
<symbol overflow="visible" id="glyph7-9">
<path style="stroke:none;" d="M 1.375 -2.78125 L 0.90625 -2.78125 L 0.90625 -3.21875 C 0.90625 -3.40625 1.015625 -3.5 1.21875 -3.5 C 1.25 -3.5 1.265625 -3.5 1.375 -3.5 L 1.375 -3.859375 C 1.265625 -3.890625 1.21875 -3.890625 1.125 -3.890625 C 0.71875 -3.890625 0.46875 -3.65625 0.46875 -3.25 L 0.46875 -2.78125 L 0.09375 -2.78125 L 0.09375 -2.421875 L 0.46875 -2.421875 L 0.46875 0 L 0.90625 0 L 0.90625 -2.421875 L 1.375 -2.421875 Z M 1.375 -2.78125 "/>
</symbol>
<symbol overflow="visible" id="glyph8-0">
<path style="stroke:none;" d=""/>
</symbol>
<symbol overflow="visible" id="glyph8-1">
<path style="stroke:none;" d="M 2.328125 -2.015625 C 2.328125 -2.5625 1.953125 -2.859375 1.3125 -2.859375 C 0.671875 -2.859375 0.25 -2.53125 0.25 -2.015625 C 0.25 -1.578125 0.46875 -1.375 1.125 -1.21875 L 1.546875 -1.109375 C 1.859375 -1.03125 1.96875 -0.921875 1.96875 -0.71875 C 1.96875 -0.46875 1.71875 -0.28125 1.328125 -0.28125 C 1.09375 -0.28125 0.890625 -0.359375 0.78125 -0.46875 C 0.703125 -0.546875 0.671875 -0.625 0.640625 -0.828125 L 0.1875 -0.828125 C 0.203125 -0.1875 0.5625 0.125 1.296875 0.125 C 1.984375 0.125 2.4375 -0.21875 2.4375 -0.765625 C 2.4375 -1.171875 2.203125 -1.40625 1.65625 -1.53125 L 1.234375 -1.640625 C 0.859375 -1.71875 0.71875 -1.84375 0.71875 -2.03125 C 0.71875 -2.296875 0.9375 -2.453125 1.296875 -2.453125 C 1.65625 -2.453125 1.84375 -2.296875 1.859375 -2.015625 Z M 2.328125 -2.015625 "/>
</symbol>
<symbol overflow="visible" id="glyph8-2">
<path style="stroke:none;" d="M 2.5 -1.84375 C 2.484375 -2.125 2.421875 -2.296875 2.3125 -2.453125 C 2.125 -2.703125 1.796875 -2.859375 1.40625 -2.859375 C 0.65625 -2.859375 0.171875 -2.265625 0.171875 -1.34375 C 0.171875 -0.453125 0.640625 0.125 1.390625 0.125 C 2.0625 0.125 2.484375 -0.28125 2.53125 -0.953125 L 2.09375 -0.953125 C 2.015625 -0.515625 1.78125 -0.28125 1.40625 -0.28125 C 0.921875 -0.28125 0.625 -0.6875 0.625 -1.34375 C 0.625 -2.046875 0.90625 -2.453125 1.390625 -2.453125 C 1.765625 -2.453125 2 -2.234375 2.0625 -1.84375 Z M 2.5 -1.84375 "/>
</symbol>
<symbol overflow="visible" id="glyph8-3">
<path style="stroke:none;" d="M 2.84375 -0.265625 C 2.796875 -0.25 2.765625 -0.25 2.75 -0.25 C 2.59375 -0.25 2.5 -0.328125 2.5 -0.46875 L 2.5 -2.109375 C 2.5 -2.59375 2.140625 -2.859375 1.453125 -2.859375 C 1.0625 -2.859375 0.71875 -2.75 0.53125 -2.546875 C 0.40625 -2.390625 0.359375 -2.234375 0.34375 -1.953125 L 0.796875 -1.953125 C 0.828125 -2.296875 1.03125 -2.453125 1.4375 -2.453125 C 1.84375 -2.453125 2.0625 -2.3125 2.0625 -2.046875 L 2.0625 -1.921875 C 2.0625 -1.734375 1.953125 -1.65625 1.609375 -1.609375 C 0.984375 -1.53125 0.875 -1.515625 0.71875 -1.4375 C 0.390625 -1.3125 0.21875 -1.0625 0.21875 -0.703125 C 0.21875 -0.203125 0.578125 0.125 1.140625 0.125 C 1.484375 0.125 1.765625 0 2.078125 -0.28125 C 2.109375 0 2.25 0.125 2.546875 0.125 C 2.625 0.125 2.703125 0.109375 2.84375 0.078125 Z M 2.0625 -0.875 C 2.0625 -0.734375 2.03125 -0.640625 1.890625 -0.515625 C 1.703125 -0.34375 1.5 -0.265625 1.234375 -0.265625 C 0.890625 -0.265625 0.6875 -0.4375 0.6875 -0.71875 C 0.6875 -1 0.875 -1.15625 1.359375 -1.21875 C 1.828125 -1.28125 1.921875 -1.3125 2.0625 -1.375 Z M 2.0625 -0.875 "/>
</symbol>
<symbol overflow="visible" id="glyph8-4">
<path style="stroke:none;" d="M 0.375 -2.78125 L 0.375 0 L 0.8125 0 L 0.8125 -1.53125 C 0.8125 -2.109375 1.109375 -2.46875 1.578125 -2.46875 C 1.921875 -2.46875 2.140625 -2.265625 2.140625 -1.921875 L 2.140625 0 L 2.59375 0 L 2.59375 -2.109375 C 2.59375 -2.5625 2.234375 -2.859375 1.703125 -2.859375 C 1.296875 -2.859375 1.03125 -2.703125 0.78125 -2.3125 L 0.78125 -2.78125 Z M 0.375 -2.78125 "/>
</symbol>
</g>
<clipPath id="clip1">
  <path d="M 76.171875 131.527344 L 133.828125 131.527344 L 133.828125 138.578125 L 76.171875 138.578125 Z M 76.171875 131.527344 "/>
</clipPath>
<clipPath id="clip2">
  <path d="M 77 111.53125 L 133.269531 111.53125 L 133.269531 118.621094 L 77 118.621094 Z M 77 111.53125 "/>
</clipPath>
<clipPath id="clip3">
  <path d="M 62 91.523438 L 148 91.523438 L 148 98.679688 L 62 98.679688 Z M 62 91.523438 "/>
</clipPath>
<clipPath id="clip4">
  <path d="M 64.238281 72.46875 L 145.761719 72.46875 L 145.761719 79.578125 L 64.238281 79.578125 Z M 64.238281 72.46875 "/>
</clipPath>
<clipPath id="clip5">
  <path d="M 72.238281 63.464844 L 137.761719 63.464844 L 137.761719 69.121094 L 72.238281 69.121094 Z M 72.238281 63.464844 "/>
</clipPath>
<clipPath id="clip6">
  <path d="M 83.269531 43.527344 L 126.730469 43.527344 L 126.730469 49.121094 L 83.269531 49.121094 Z M 83.269531 43.527344 "/>
</clipPath>
<clipPath id="clip7">
  <path d="M 88.800781 23.464844 L 121 23.464844 L 121 29.121094 L 88.800781 29.121094 Z M 88.800781 23.464844 "/>
</clipPath>
<clipPath id="clip8">
  <path d="M 89.085938 6.894531 L 120.917969 6.894531 L 120.917969 11.121094 L 89.085938 11.121094 Z M 89.085938 6.894531 "/>
</clipPath>
<clipPath id="clip9">
  <path d="M 21.503906 48.105469 L 27.097656 48.105469 L 27.097656 117.945312 L 21.503906 117.945312 Z M 21.503906 48.105469 "/>
</clipPath>
<clipPath id="clip10">
  <path d="M 196 69.527344 L 210 69.527344 L 210 76.578125 L 196 76.578125 Z M 196 69.527344 "/>
</clipPath>
<clipPath id="clip11">
  <path d="M 191 78.527344 L 215 78.527344 L 215 84.121094 L 191 84.121094 Z M 191 78.527344 "/>
</clipPath>
<clipPath id="clip12">
  <path d="M 189.320312 87.625 L 216.675781 87.625 L 216.675781 93.21875 L 189.320312 93.21875 Z M 189.320312 87.625 "/>
</clipPath>
<clipPath id="clip13">
  <path d="M 5 159.84375 L 29 159.84375 L 29 166.140625 L 5 166.140625 Z M 5 159.84375 "/>
</clipPath>
<clipPath id="clip14">
  <path d="M 77 159.84375 L 121 159.84375 L 121 166.140625 L 77 166.140625 Z M 77 159.84375 "/>
</clipPath>
<clipPath id="clip15">
  <path d="M 179 159.84375 L 203 159.84375 L 203 166.140625 L 179 166.140625 Z M 179 159.84375 "/>
</clipPath>
<clipPath id="clip16">
  <path d="M 36.285156 142.695312 L 46.628906 142.695312 L 46.628906 146.625 L 36.285156 146.625 Z M 36.285156 142.695312 "/>
</clipPath>
<clipPath id="clip17">
  <path d="M 147 108.652344 L 168.71875 108.652344 L 168.71875 112.625 L 147 112.625 Z M 147 108.652344 "/>
</clipPath>
<clipPath id="clip18">
  <path d="M 147.175781 41.660156 L 161 41.660156 L 161 44.625 L 147.175781 44.625 Z M 147.175781 41.660156 "/>
</clipPath>
<clipPath id="clip19">
  <path d="M 30.175781 131.894531 L 46 131.894531 L 46 135.824219 L 30.175781 135.824219 Z M 30.175781 131.894531 "/>
</clipPath>
</defs>
<g id="surface36429">
<path style=" stroke:none;fill-rule:evenodd;fill:rgb(96.5%,96.1%,95.7%);fill-opacity:1;" d="M 1 1 L 1 173 L 221 173 L 221 1 Z M 1 1 "/>
<path style="fill:none;stroke-width:1;stroke-linecap:butt;stroke-linejoin:round;stroke:rgb(66.3%,66.3%,66.3%);stroke-opacity:1;stroke-miterlimit:10;" d="M 44 812 L 44 672 L 28 672 L 28 812 L 40 812 " transform="matrix(1,0,0,-1,-19,821)"/>
<path style="fill-rule:evenodd;fill:rgb(66.3%,66.3%,66.3%);fill-opacity:1;stroke-width:1;stroke-linecap:butt;stroke-linejoin:round;stroke:rgb(66.3%,66.3%,66.3%);stroke-opacity:1;stroke-miterlimit:10;" d="M 40 812 L 35 813.664062 L 35 810.335938 Z M 40 812 " transform="matrix(1,0,0,-1,-19,821)"/>
<path style="fill:none;stroke-width:1;stroke-linecap:butt;stroke-linejoin:round;stroke:rgb(66.3%,66.3%,66.3%);stroke-opacity:1;stroke-miterlimit:10;" d="M 224 812 L 224 672 L 196 672 L 196 812 L 220 812 " transform="matrix(1,0,0,-1,-19,821)"/>
<path style="fill-rule:evenodd;fill:rgb(66.3%,66.3%,66.3%);fill-opacity:1;stroke-width:1;stroke-linecap:butt;stroke-linejoin:round;stroke:rgb(66.3%,66.3%,66.3%);stroke-opacity:1;stroke-miterlimit:10;" d="M 220 812 L 215 813.664062 L 215 810.335938 Z M 220 812 " transform="matrix(1,0,0,-1,-19,821)"/>
<path style="fill:none;stroke-width:0.4;stroke-linecap:butt;stroke-linejoin:round;stroke:rgb(0%,0%,0%);stroke-opacity:1;stroke-miterlimit:10;" d="M 152 772 Z M 152 772 " transform="matrix(1,0,0,-1,-19,821)"/>
<path style="fill:none;stroke-width:1;stroke-linecap:butt;stroke-linejoin:round;stroke:rgb(66.3%,66.3%,66.3%);stroke-opacity:1;stroke-miterlimit:10;" d="M 124 808 L 124 672 L 72 672 L 72 812 L 104 812 " transform="matrix(1,0,0,-1,-19,821)"/>
<path style="fill-rule:evenodd;fill:rgb(66.3%,66.3%,66.3%);fill-opacity:1;stroke-width:1;stroke-linecap:butt;stroke-linejoin:round;stroke:rgb(66.3%,66.3%,66.3%);stroke-opacity:1;stroke-miterlimit:10;" d="M 104 812 L 99 813.664062 L 99 810.335938 Z M 104 812 " transform="matrix(1,0,0,-1,-19,821)"/>
<path style=" stroke:none;fill-rule:evenodd;fill:rgb(96.5%,96.1%,95.7%);fill-opacity:1;" d="M 101 21 L 101 33 L 109 33 L 109 21 Z M 101 21 "/>
<path style=" stroke:none;fill-rule:evenodd;fill:rgb(96.5%,96.1%,95.7%);fill-opacity:1;" d="M 101 41 L 101 53 L 109 53 L 109 41 Z M 101 41 "/>
<path style=" stroke:none;fill-rule:evenodd;fill:rgb(96.5%,96.1%,95.7%);fill-opacity:1;" d="M 101 61 L 101 81 L 109 81 L 109 61 Z M 101 61 "/>
<path style=" stroke:none;fill-rule:evenodd;fill:rgb(96.5%,96.1%,95.7%);fill-opacity:1;" d="M 101 89 L 101 101 L 109 101 L 109 89 Z M 101 89 "/>
<path style=" stroke:none;fill-rule:evenodd;fill:rgb(96.5%,96.1%,95.7%);fill-opacity:1;" d="M 101 109 L 101 121 L 109 121 L 109 109 Z M 101 109 "/>
<path style=" stroke:none;fill-rule:evenodd;fill:rgb(96.5%,96.1%,95.7%);fill-opacity:1;" d="M 101 129 L 101 141 L 109 141 L 109 129 Z M 101 129 "/>
<g clip-path="url(#clip1)" clip-rule="nonzero">
<g style="fill:rgb(0%,0%,0%);fill-opacity:1;">
  <use xlink:href="#glyph0-1" x="76.1715" y="137.001"/>
  <use xlink:href="#glyph0-2" x="80.38131" y="137.001"/>
  <use xlink:href="#glyph0-3" x="84.591119" y="137.001"/>
  <use xlink:href="#glyph0-4" x="88.800929" y="137.001"/>
  <use xlink:href="#glyph0-5" x="93.010738" y="137.001"/>
  <use xlink:href="#glyph0-6" x="95.115643" y="137.001"/>
  <use xlink:href="#glyph0-7" x="101.430358" y="137.001"/>
  <use xlink:href="#glyph0-8" x="103.111253" y="137.001"/>
  <use xlink:href="#glyph0-9" x="107.321062" y="137.001"/>
  <use xlink:href="#glyph0-4" x="111.106862" y="137.001"/>
  <use xlink:href="#glyph0-7" x="115.316672" y="137.001"/>
  <use xlink:href="#glyph0-10" x="119.102472" y="137.001"/>
  <use xlink:href="#glyph0-4" x="125.409615" y="137.001"/>
  <use xlink:href="#glyph0-2" x="129.619424" y="137.001"/>
</g>
</g>
<g clip-path="url(#clip2)" clip-rule="nonzero">
<g style="fill:rgb(0%,0%,0%);fill-opacity:1;">
  <use xlink:href="#glyph1-1" x="76.728" y="117"/>
  <use xlink:href="#glyph1-2" x="80.93781" y="117"/>
  <use xlink:href="#glyph1-3" x="85.147619" y="117"/>
  <use xlink:href="#glyph1-4" x="89.357429" y="117"/>
  <use xlink:href="#glyph1-5" x="93.567238" y="117"/>
  <use xlink:href="#glyph1-6" x="95.672143" y="117"/>
  <use xlink:href="#glyph1-5" x="101.986858" y="117"/>
  <use xlink:href="#glyph1-7" x="104.091762" y="117"/>
  <use xlink:href="#glyph1-4" x="106.537389" y="117"/>
  <use xlink:href="#glyph1-8" x="110.747199" y="117"/>
  <use xlink:href="#glyph1-6" x="112.428094" y="117"/>
  <use xlink:href="#glyph1-9" x="116.637904" y="117"/>
  <use xlink:href="#glyph1-5" x="120.423704" y="117"/>
  <use xlink:href="#glyph1-10" x="122.528608" y="117"/>
  <use xlink:href="#glyph1-7" x="126.738418" y="117"/>
  <use xlink:href="#glyph1-11" x="129.486909" y="117"/>
</g>
</g>
<g clip-path="url(#clip3)" clip-rule="nonzero">
<g style="fill:rgb(0%,0%,0%);fill-opacity:1;">
  <use xlink:href="#glyph0-11" x="61.869" y="96.995"/>
  <use xlink:href="#glyph0-6" x="64.390343" y="96.995"/>
  <use xlink:href="#glyph0-12" x="68.600152" y="96.995"/>
  <use xlink:href="#glyph0-13" x="72.809962" y="96.995"/>
  <use xlink:href="#glyph0-14" x="74.490857" y="96.995"/>
  <use xlink:href="#glyph0-5" x="78.276657" y="96.995"/>
  <use xlink:href="#glyph0-6" x="80.381562" y="96.995"/>
  <use xlink:href="#glyph0-11" x="84.591372" y="96.995"/>
  <use xlink:href="#glyph0-14" x="89.217619" y="96.995"/>
  <use xlink:href="#glyph0-9" x="93.003419" y="96.995"/>
  <use xlink:href="#glyph0-4" x="96.789219" y="96.995"/>
  <use xlink:href="#glyph0-15" x="100.999029" y="96.995"/>
  <use xlink:href="#glyph0-5" x="107.313743" y="96.995"/>
  <use xlink:href="#glyph0-8" x="109.418648" y="96.995"/>
  <use xlink:href="#glyph0-7" x="115.733362" y="96.995"/>
  <use xlink:href="#glyph0-8" x="117.414258" y="96.995"/>
  <use xlink:href="#glyph0-9" x="121.624067" y="96.995"/>
  <use xlink:href="#glyph0-4" x="125.409867" y="96.995"/>
  <use xlink:href="#glyph0-7" x="129.619677" y="96.995"/>
  <use xlink:href="#glyph0-10" x="133.405477" y="96.995"/>
  <use xlink:href="#glyph0-4" x="139.71262" y="96.995"/>
  <use xlink:href="#glyph0-2" x="143.922429" y="96.995"/>
</g>
</g>
<g clip-path="url(#clip4)" clip-rule="nonzero">
<g style="fill:rgb(0%,0%,0%);fill-opacity:1;">
  <use xlink:href="#glyph2-1" x="64.239" y="78.001"/>
  <use xlink:href="#glyph2-2" x="68.44881" y="78.001"/>
  <use xlink:href="#glyph2-3" x="70.970152" y="78.001"/>
  <use xlink:href="#glyph2-4" x="75.179962" y="78.001"/>
  <use xlink:href="#glyph2-5" x="79.389772" y="78.001"/>
  <use xlink:href="#glyph2-6" x="81.070667" y="78.001"/>
  <use xlink:href="#glyph2-7" x="84.856467" y="78.001"/>
  <use xlink:href="#glyph2-3" x="86.961372" y="78.001"/>
  <use xlink:href="#glyph2-4" x="91.171181" y="78.001"/>
  <use xlink:href="#glyph2-7" x="97.485896" y="78.001"/>
  <use xlink:href="#glyph2-2" x="99.5908" y="78.001"/>
  <use xlink:href="#glyph2-8" x="102.036427" y="78.001"/>
  <use xlink:href="#glyph2-9" x="106.246237" y="78.001"/>
  <use xlink:href="#glyph2-10" x="110.456046" y="78.001"/>
  <use xlink:href="#glyph2-11" x="114.241846" y="78.001"/>
  <use xlink:href="#glyph2-12" x="116.119603" y="78.001"/>
  <use xlink:href="#glyph2-2" x="120.329413" y="78.001"/>
  <use xlink:href="#glyph2-13" x="123.040046" y="78.001"/>
  <use xlink:href="#glyph2-8" x="129.347188" y="78.001"/>
  <use xlink:href="#glyph2-7" x="133.556998" y="78.001"/>
  <use xlink:href="#glyph2-5" x="135.661903" y="78.001"/>
  <use xlink:href="#glyph2-12" x="137.342798" y="78.001"/>
  <use xlink:href="#glyph2-9" x="141.552608" y="78.001"/>
</g>
</g>
<g clip-path="url(#clip5)" clip-rule="nonzero">
<g style="fill:rgb(0%,0%,0%);fill-opacity:1;">
  <use xlink:href="#glyph2-7" x="72.238" y="68.995"/>
  <use xlink:href="#glyph2-2" x="74.342905" y="68.995"/>
  <use xlink:href="#glyph2-8" x="76.788532" y="68.995"/>
  <use xlink:href="#glyph2-9" x="80.998341" y="68.995"/>
  <use xlink:href="#glyph2-10" x="85.208151" y="68.995"/>
  <use xlink:href="#glyph2-11" x="88.993951" y="68.995"/>
  <use xlink:href="#glyph2-12" x="90.871708" y="68.995"/>
  <use xlink:href="#glyph2-2" x="95.081517" y="68.995"/>
  <use xlink:href="#glyph2-13" x="97.79215" y="68.995"/>
  <use xlink:href="#glyph2-10" x="106.204198" y="68.995"/>
  <use xlink:href="#glyph2-6" x="109.989998" y="68.995"/>
  <use xlink:href="#glyph2-8" x="113.775798" y="68.995"/>
  <use xlink:href="#glyph2-9" x="117.985607" y="68.995"/>
  <use xlink:href="#glyph2-14" x="124.300322" y="68.995"/>
  <use xlink:href="#glyph2-5" x="129.767017" y="68.995"/>
  <use xlink:href="#glyph2-7" x="131.447912" y="68.995"/>
  <use xlink:href="#glyph2-15" x="133.552817" y="68.995"/>
</g>
</g>
<g clip-path="url(#clip6)" clip-rule="nonzero">
<g style="fill:rgb(0%,0%,0%);fill-opacity:1;">
  <use xlink:href="#glyph0-3" x="83.2695" y="48.995"/>
  <use xlink:href="#glyph0-6" x="87.47931" y="48.995"/>
  <use xlink:href="#glyph0-14" x="91.689119" y="48.995"/>
  <use xlink:href="#glyph0-16" x="95.474919" y="48.995"/>
  <use xlink:href="#glyph0-6" x="99.109287" y="48.995"/>
  <use xlink:href="#glyph0-17" x="103.167665" y="48.995"/>
  <use xlink:href="#glyph0-14" x="110.739265" y="48.995"/>
  <use xlink:href="#glyph0-9" x="114.525065" y="48.995"/>
  <use xlink:href="#glyph0-4" x="118.310865" y="48.995"/>
  <use xlink:href="#glyph0-15" x="122.520674" y="48.995"/>
</g>
</g>
<g clip-path="url(#clip7)" clip-rule="nonzero">
<g style="fill:rgb(0%,0%,0%);fill-opacity:1;">
  <use xlink:href="#glyph2-16" x="88.801" y="28.995"/>
  <use xlink:href="#glyph2-17" x="92.5868" y="28.995"/>
  <use xlink:href="#glyph2-7" x="94.267695" y="28.995"/>
  <use xlink:href="#glyph2-3" x="96.3726" y="28.995"/>
  <use xlink:href="#glyph2-2" x="100.58241" y="28.995"/>
  <use xlink:href="#glyph2-10" x="105.208657" y="28.995"/>
  <use xlink:href="#glyph2-6" x="108.994457" y="28.995"/>
  <use xlink:href="#glyph2-8" x="112.780257" y="28.995"/>
  <use xlink:href="#glyph2-9" x="116.990067" y="28.995"/>
</g>
</g>
<g clip-path="url(#clip8)" clip-rule="nonzero">
<g style="fill:rgb(0%,0%,0%);fill-opacity:1;">
  <use xlink:href="#glyph3-1" x="89.0845" y="10.995"/>
  <use xlink:href="#glyph3-2" x="93.29431" y="10.995"/>
  <use xlink:href="#glyph3-3" x="97.352687" y="10.995"/>
  <use xlink:href="#glyph3-4" x="104.924287" y="10.995"/>
  <use xlink:href="#glyph3-5" x="108.710087" y="10.995"/>
  <use xlink:href="#glyph3-6" x="112.495887" y="10.995"/>
  <use xlink:href="#glyph3-1" x="116.705697" y="10.995"/>
</g>
</g>
<path style=" stroke:none;fill-rule:evenodd;fill:rgb(96.5%,96.1%,95.7%);fill-opacity:1;" d="M 17 47 L 17 121 L 33 121 L 33 47 Z M 17 47 "/>
<g clip-path="url(#clip9)" clip-rule="nonzero">
<g style="fill:rgb(0%,0%,0%);fill-opacity:1;">
  <use xlink:href="#glyph4-1" x="26.971" y="117.944"/>
  <use xlink:href="#glyph4-2" x="26.971" y="114.1582"/>
  <use xlink:href="#glyph4-3" x="26.971" y="112.477305"/>
  <use xlink:href="#glyph4-4" x="26.971" y="108.267495"/>
  <use xlink:href="#glyph4-2" x="26.971" y="101.960352"/>
  <use xlink:href="#glyph4-3" x="26.971" y="100.279457"/>
  <use xlink:href="#glyph4-5" x="26.971" y="96.069648"/>
  <use xlink:href="#glyph4-6" x="26.971" y="91.859838"/>
  <use xlink:href="#glyph4-7" x="26.971" y="89.338495"/>
  <use xlink:href="#glyph4-8" x="26.971" y="85.552695"/>
  <use xlink:href="#glyph4-1" x="26.971" y="83.8718"/>
  <use xlink:href="#glyph4-9" x="26.971" y="80.086"/>
  <use xlink:href="#glyph4-3" x="26.971" y="75.87619"/>
  <use xlink:href="#glyph4-2" x="26.971" y="71.666381"/>
  <use xlink:href="#glyph4-8" x="26.971" y="69.985486"/>
  <use xlink:href="#glyph4-10" x="26.971" y="68.30459"/>
  <use xlink:href="#glyph4-3" x="26.971" y="64.51879"/>
  <use xlink:href="#glyph4-11" x="26.971" y="60.308981"/>
  <use xlink:href="#glyph4-8" x="26.971" y="58.204076"/>
  <use xlink:href="#glyph4-12" x="26.971" y="56.523181"/>
  <use xlink:href="#glyph4-13" x="26.971" y="52.313371"/>
</g>
</g>
<path style=" stroke:none;fill-rule:evenodd;fill:rgb(96.5%,96.1%,95.7%);fill-opacity:1;" d="M 199 66 L 199 98 L 207 98 L 207 66 Z M 199 66 "/>
<g clip-path="url(#clip10)" clip-rule="nonzero">
<g style="fill:rgb(0%,0%,0%);fill-opacity:1;">
  <use xlink:href="#glyph0-7" x="195.845" y="75.001"/>
  <use xlink:href="#glyph0-8" x="197.525895" y="75.001"/>
  <use xlink:href="#glyph0-8" x="201.735705" y="75.001"/>
  <use xlink:href="#glyph0-2" x="205.945514" y="75.001"/>
</g>
</g>
<g clip-path="url(#clip11)" clip-rule="nonzero">
<g style="fill:rgb(0%,0%,0%);fill-opacity:1;">
  <use xlink:href="#glyph0-9" x="190.7985" y="83.995"/>
  <use xlink:href="#glyph0-7" x="194.5843" y="83.995"/>
  <use xlink:href="#glyph0-8" x="196.265195" y="83.995"/>
  <use xlink:href="#glyph0-14" x="200.475005" y="83.995"/>
  <use xlink:href="#glyph0-1" x="204.260805" y="83.995"/>
  <use xlink:href="#glyph0-11" x="208.470614" y="83.995"/>
  <use xlink:href="#glyph0-6" x="210.991957" y="83.995"/>
</g>
</g>
<g clip-path="url(#clip12)" clip-rule="nonzero">
<g style="fill:rgb(0%,0%,0%);fill-opacity:1;">
  <use xlink:href="#glyph0-3" x="189.322" y="93.095"/>
  <use xlink:href="#glyph0-6" x="193.53181" y="93.095"/>
  <use xlink:href="#glyph0-5" x="197.741619" y="93.095"/>
  <use xlink:href="#glyph0-6" x="199.846524" y="93.095"/>
  <use xlink:href="#glyph0-9" x="204.056334" y="93.095"/>
  <use xlink:href="#glyph0-5" x="207.842134" y="93.095"/>
  <use xlink:href="#glyph0-8" x="209.947038" y="93.095"/>
  <use xlink:href="#glyph0-11" x="214.156848" y="93.095"/>
</g>
</g>
<g clip-path="url(#clip13)" clip-rule="nonzero">
<g style="fill:rgb(25.1%,66.7%,60.8%);fill-opacity:1;">
  <use xlink:href="#glyph5-1" x="4.926" y="166"/>
  <use xlink:href="#glyph5-2" x="7.294004" y="166"/>
  <use xlink:href="#glyph5-3" x="12.030012" y="166"/>
  <use xlink:href="#glyph5-4" x="14.866506" y="166"/>
  <use xlink:href="#glyph5-5" x="19.602514" y="166"/>
  <use xlink:href="#glyph5-6" x="24.338522" y="166"/>
</g>
</g>
<g clip-path="url(#clip14)" clip-rule="nonzero">
<g style="fill:rgb(25.1%,66.7%,60.8%);fill-opacity:1;">
  <use xlink:href="#glyph5-7" x="76.5125" y="166"/>
  <use xlink:href="#glyph5-5" x="83.607994" y="166"/>
  <use xlink:href="#glyph5-8" x="88.344002" y="166"/>
  <use xlink:href="#glyph5-9" x="90.234998" y="166"/>
  <use xlink:href="#glyph5-1" x="97.33901" y="166"/>
  <use xlink:href="#glyph5-2" x="99.707014" y="166"/>
  <use xlink:href="#glyph5-3" x="104.443022" y="166"/>
  <use xlink:href="#glyph5-4" x="107.279516" y="166"/>
  <use xlink:href="#glyph5-5" x="112.015524" y="166"/>
  <use xlink:href="#glyph5-6" x="116.751532" y="166"/>
</g>
</g>
<g clip-path="url(#clip15)" clip-rule="nonzero">
<g style="fill:rgb(25.1%,66.7%,60.8%);fill-opacity:1;">
  <use xlink:href="#glyph5-1" x="178.926" y="166"/>
  <use xlink:href="#glyph5-2" x="181.294004" y="166"/>
  <use xlink:href="#glyph5-3" x="186.030012" y="166"/>
  <use xlink:href="#glyph5-4" x="188.866506" y="166"/>
  <use xlink:href="#glyph5-5" x="193.602514" y="166"/>
  <use xlink:href="#glyph5-6" x="198.338522" y="166"/>
</g>
</g>
<path style="fill:none;stroke-width:1;stroke-linecap:butt;stroke-linejoin:round;stroke:rgb(25.1%,66.7%,60.8%);stroke-opacity:1;stroke-dasharray:4;stroke-miterlimit:10;" d="M 176 816 L 176 652 " transform="matrix(1,0,0,-1,-19,821)"/>
<path style="fill:none;stroke-width:1;stroke-linecap:butt;stroke-linejoin:round;stroke:rgb(25.1%,66.7%,60.8%);stroke-opacity:1;stroke-dasharray:4;stroke-miterlimit:10;" d="M 60 816 L 60 652 " transform="matrix(1,0,0,-1,-19,821)"/>
<path style=" stroke:none;fill-rule:evenodd;fill:rgb(96.5%,96.1%,95.7%);fill-opacity:1;" d="M 36 140.394531 L 36 150.699219 L 47.558594 150.699219 L 47.558594 140.394531 Z M 36 140.394531 "/>
<g clip-path="url(#clip16)" clip-rule="nonzero">
<g style="fill:rgb(14.9%,63.5%,41.2%);fill-opacity:1;">
  <use xlink:href="#glyph6-1" x="36.284942" y="146.536736"/>
  <use xlink:href="#glyph6-2" x="39.240395" y="146.536736"/>
  <use xlink:href="#glyph6-3" x="42.195849" y="146.536736"/>
  <use xlink:href="#glyph6-2" x="43.673576" y="146.536736"/>
</g>
</g>
<path style="fill:none;stroke-width:1;stroke-linecap:butt;stroke-linejoin:round;stroke:rgb(25.1%,66.7%,60.8%);stroke-opacity:1;stroke-miterlimit:10;" d="M 68 672 L 48 672 " transform="matrix(1,0,0,-1,-19,821)"/>
<path style="fill-rule:evenodd;fill:rgb(25.1%,66.7%,60.8%);fill-opacity:1;stroke-width:1;stroke-linecap:butt;stroke-linejoin:round;stroke:rgb(25.1%,66.7%,60.8%);stroke-opacity:1;stroke-miterlimit:10;" d="M 48 672 L 53 670.335938 L 53 673.664062 Z M 48 672 " transform="matrix(1,0,0,-1,-19,821)"/>
<path style=" stroke:none;fill-rule:evenodd;fill:rgb(96.5%,96.1%,95.7%);fill-opacity:1;" d="M 145.839844 107.5625 L 145.839844 116.457031 L 170.371094 116.457031 L 170.371094 107.5625 Z M 145.839844 107.5625 "/>
<g clip-path="url(#clip17)" clip-rule="nonzero">
<g style="fill:rgb(25.1%,66.7%,60.8%);fill-opacity:1;">
  <use xlink:href="#glyph7-1" x="146.777753" y="112.536736"/>
  <use xlink:href="#glyph7-2" x="148.547836" y="112.536736"/>
  <use xlink:href="#glyph7-3" x="151.503289" y="112.536736"/>
  <use xlink:href="#glyph7-4" x="152.683345" y="112.536736"/>
  <use xlink:href="#glyph7-5" x="154.161071" y="112.536736"/>
  <use xlink:href="#glyph7-1" x="155.638798" y="112.536736"/>
  <use xlink:href="#glyph7-6" x="157.355725" y="112.536736"/>
  <use xlink:href="#glyph7-7" x="160.311179" y="112.536736"/>
  <use xlink:href="#glyph7-8" x="163.266633" y="112.536736"/>
  <use xlink:href="#glyph7-9" x="165.924415" y="112.536736"/>
  <use xlink:href="#glyph7-4" x="167.242675" y="112.536736"/>
</g>
</g>
<path style="fill:none;stroke-width:1;stroke-linecap:butt;stroke-linejoin:round;stroke:rgb(25.1%,66.7%,60.8%);stroke-opacity:1;stroke-miterlimit:10;" d="M 192 706 L 158 706 " transform="matrix(1,0,0,-1,-19,821)"/>
<path style="fill-rule:evenodd;fill:rgb(25.1%,66.7%,60.8%);fill-opacity:1;stroke-width:1;stroke-linecap:butt;stroke-linejoin:round;stroke:rgb(25.1%,66.7%,60.8%);stroke-opacity:1;stroke-miterlimit:10;" d="M 158 706 L 163 704.335938 L 163 707.664062 Z M 158 706 " transform="matrix(1,0,0,-1,-19,821)"/>
<path style=" stroke:none;fill-rule:evenodd;fill:rgb(96.5%,96.1%,95.7%);fill-opacity:1;" d="M 147.097656 39.894531 L 147.097656 49.898438 L 163.109375 49.898438 L 163.109375 39.894531 Z M 147.097656 39.894531 "/>
<path style="fill:none;stroke-width:1;stroke-linecap:butt;stroke-linejoin:round;stroke:rgb(25.1%,66.7%,60.8%);stroke-opacity:1;stroke-miterlimit:10;" d="M 156 774 L 192 774 " transform="matrix(1,0,0,-1,-19,821)"/>
<path style="fill-rule:evenodd;fill:rgb(25.1%,66.7%,60.8%);fill-opacity:1;stroke-width:1;stroke-linecap:butt;stroke-linejoin:round;stroke:rgb(25.1%,66.7%,60.8%);stroke-opacity:1;stroke-miterlimit:10;" d="M 192 774 L 187 775.664062 L 187 772.335938 Z M 192 774 " transform="matrix(1,0,0,-1,-19,821)"/>
<g clip-path="url(#clip18)" clip-rule="nonzero">
<g style="fill:rgb(25.1%,66.7%,60.8%);fill-opacity:1;">
  <use xlink:href="#glyph8-1" x="147.175968" y="44.536736"/>
  <use xlink:href="#glyph8-2" x="149.83375" y="44.536736"/>
  <use xlink:href="#glyph8-3" x="152.491532" y="44.536736"/>
  <use xlink:href="#glyph8-4" x="155.446986" y="44.536736"/>
  <use xlink:href="#glyph8-1" x="158.40244" y="44.536736"/>
</g>
</g>
<path style=" stroke:none;fill-rule:evenodd;fill:rgb(96.5%,96.1%,95.7%);fill-opacity:1;" d="M 36 130.394531 L 36 140.699219 L 47.558594 140.699219 L 47.558594 130.394531 Z M 36 130.394531 "/>
<g clip-path="url(#clip19)" clip-rule="nonzero">
<g style="fill:rgb(25.1%,66.7%,60.8%);fill-opacity:1;">
  <use xlink:href="#glyph6-4" x="30.177327" y="135.736736"/>
  <use xlink:href="#glyph6-5" x="32.835109" y="135.736736"/>
  <use xlink:href="#glyph6-6" x="35.790563" y="135.736736"/>
  <use xlink:href="#glyph6-3" x="38.746017" y="135.736736"/>
  <use xlink:href="#glyph6-7" x="40.223743" y="135.736736"/>
  <use xlink:href="#glyph6-5" x="41.993826" y="135.736736"/>
  <use xlink:href="#glyph6-8" x="44.94928" y="135.736736"/>
</g>
</g>
<path style="fill:none;stroke-width:1;stroke-linecap:butt;stroke-linejoin:round;stroke:rgb(25.1%,66.7%,60.8%);stroke-opacity:1;stroke-miterlimit:10;" d="M 48 682 L 68 682 " transform="matrix(1,0,0,-1,-19,821)"/>
<path style="fill-rule:evenodd;fill:rgb(25.1%,66.7%,60.8%);fill-opacity:1;stroke-width:1;stroke-linecap:butt;stroke-linejoin:round;stroke:rgb(25.1%,66.7%,60.8%);stroke-opacity:1;stroke-miterlimit:10;" d="M 68 682 L 63 683.664062 L 63 680.335938 Z M 68 682 " transform="matrix(1,0,0,-1,-19,821)"/>
</g>
</svg>
